<svg width="191" height="20" viewBox="0 0 191 20" fill="none" xmlns="http://www.w3.org/2000/svg">
<path d="M3.97159 5.77273V14.5H2.91477V6.88068H2.86364L0.732955 8.29545V7.22159L2.91477 5.77273H3.97159ZM9.25994 5.65341C9.6179 5.65625 9.97585 5.72443 10.3338 5.85795C10.6918 5.99148 11.0185 6.21307 11.3139 6.52273C11.6094 6.82955 11.8466 7.24858 12.0256 7.77983C12.2045 8.31108 12.294 8.97727 12.294 9.77841C12.294 10.554 12.2202 11.2429 12.0724 11.8452C11.9276 12.4446 11.7173 12.9503 11.4418 13.3622C11.169 13.7741 10.8366 14.0866 10.4446 14.2997C10.0554 14.5128 9.61506 14.6193 9.12358 14.6193C8.63494 14.6193 8.19886 14.5227 7.81534 14.3295C7.43466 14.1335 7.12216 13.8622 6.87784 13.5156C6.63636 13.1662 6.48153 12.7614 6.41335 12.3011H7.45312C7.54688 12.7017 7.73295 13.0327 8.01136 13.294C8.29261 13.5526 8.66335 13.6818 9.12358 13.6818C9.79688 13.6818 10.3281 13.3878 10.7173 12.7997C11.1094 12.2116 11.3054 11.3807 11.3054 10.3068H11.2372C11.0781 10.5455 10.8892 10.7514 10.6705 10.9247C10.4517 11.098 10.2088 11.2315 9.94176 11.3253C9.67472 11.419 9.39063 11.4659 9.08949 11.4659C8.58949 11.4659 8.13068 11.3423 7.71307 11.0952C7.2983 10.8452 6.96591 10.5028 6.71591 10.0682C6.46875 9.63068 6.34517 9.13068 6.34517 8.56818C6.34517 8.03409 6.46449 7.54545 6.70312 7.10227C6.9446 6.65625 7.28267 6.30114 7.71733 6.03693C8.15483 5.77273 8.66903 5.64489 9.25994 5.65341ZM9.25994 6.59091C8.90199 6.59091 8.57955 6.6804 8.29261 6.85938C8.00852 7.03551 7.78267 7.27415 7.61506 7.57528C7.45028 7.87358 7.3679 8.20455 7.3679 8.56818C7.3679 8.93182 7.44744 9.26278 7.60653 9.56108C7.76847 9.85653 7.98864 10.0923 8.26705 10.2685C8.5483 10.4418 8.8679 10.5284 9.22585 10.5284C9.49574 10.5284 9.74716 10.4759 9.98011 10.3707C10.2131 10.2628 10.4162 10.1165 10.5895 9.93182C10.7656 9.74432 10.9034 9.53267 11.0028 9.29688C11.1023 9.05824 11.152 8.80966 11.152 8.55114C11.152 8.21023 11.0696 7.89062 10.9048 7.59233C10.7429 7.29403 10.5185 7.05256 10.2315 6.8679C9.94744 6.68324 9.62358 6.59091 9.25994 6.59091ZM17.4982 5.77273H18.538V12.642H18.6232L23.396 5.77273H24.4187V14.5H23.3619V7.64773H23.2766L18.521 14.5H17.4982V5.77273ZM29.5334 10.8182V11.7557H26.0732V10.8182H29.5334ZM26.9254 7.95455V14.5H25.9197V7.95455H26.9254ZM31.5447 14.6364C30.9538 14.6364 30.4354 14.4957 29.9893 14.2145C29.5462 13.9332 29.1996 13.5398 28.9496 13.0341C28.7024 12.5284 28.5788 11.9375 28.5788 11.2614C28.5788 10.5795 28.7024 9.98437 28.9496 9.47585C29.1996 8.96733 29.5462 8.57244 29.9893 8.29119C30.4354 8.00994 30.9538 7.86932 31.5447 7.86932C32.1357 7.86932 32.6527 8.00994 33.0959 8.29119C33.5419 8.57244 33.8885 8.96733 34.1357 9.47585C34.3857 9.98437 34.5107 10.5795 34.5107 11.2614C34.5107 11.9375 34.3857 12.5284 34.1357 13.0341C33.8885 13.5398 33.5419 13.9332 33.0959 14.2145C32.6527 14.4957 32.1357 14.6364 31.5447 14.6364ZM31.5447 13.733C31.9936 13.733 32.3629 13.6179 32.6527 13.3878C32.9425 13.1577 33.157 12.8551 33.2962 12.4801C33.4354 12.1051 33.505 11.6989 33.505 11.2614C33.505 10.8239 33.4354 10.4162 33.2962 10.0384C33.157 9.66051 32.9425 9.35511 32.6527 9.12216C32.3629 8.8892 31.9936 8.77273 31.5447 8.77273C31.0959 8.77273 30.7266 8.8892 30.4368 9.12216C30.147 9.35511 29.9325 9.66051 29.7933 10.0384C29.6541 10.4162 29.5845 10.8239 29.5845 11.2614C29.5845 11.6989 29.6541 12.1051 29.7933 12.4801C29.9325 12.8551 30.147 13.1577 30.4368 13.3878C30.7266 13.6179 31.0959 13.733 31.5447 13.733ZM35.5675 14.5V13.5625H35.8061C36.0021 13.5625 36.1655 13.5241 36.2962 13.4474C36.4268 13.3679 36.532 13.2301 36.6115 13.0341C36.6939 12.8352 36.7564 12.5597 36.799 12.2074C36.8445 11.8523 36.8771 11.4006 36.897 10.8523L37.0163 7.95455H41.38V14.5H40.3743V8.89205H37.9709L37.8686 11.2273C37.8459 11.7642 37.7976 12.2372 37.7237 12.6463C37.6527 13.0526 37.5433 13.3935 37.3956 13.669C37.2507 13.9446 37.0575 14.152 36.8161 14.2912C36.5746 14.4304 36.272 14.5 35.9084 14.5H35.5675ZM47.1626 14.5V8.875H45.424C45.032 8.875 44.7237 8.96591 44.4993 9.14773C44.2749 9.32955 44.1626 9.57955 44.1626 9.89773C44.1626 10.2102 44.2635 10.456 44.4652 10.6349C44.6697 10.8139 44.9496 10.9034 45.3047 10.9034H47.4183V11.8409H45.3047C44.8615 11.8409 44.4794 11.7628 44.1584 11.6065C43.8374 11.4503 43.5902 11.2273 43.4169 10.9375C43.2436 10.6449 43.157 10.2983 43.157 9.89773C43.157 9.49432 43.2479 9.14773 43.4297 8.85795C43.6115 8.56818 43.8714 8.34517 44.2095 8.18892C44.5504 8.03267 44.9553 7.95455 45.424 7.95455H48.1172V14.5H47.1626ZM42.799 14.5L44.657 11.2443H45.7479L43.8899 14.5H42.799ZM51.4634 13.3068L51.3952 13.767C51.3469 14.0909 51.2731 14.4375 51.1737 14.8068C51.0771 15.1761 50.9762 15.5241 50.8711 15.8509C50.766 16.1776 50.6793 16.4375 50.6112 16.6307H49.8441C49.881 16.4489 49.9293 16.2088 49.989 15.9105C50.0487 15.6122 50.1083 15.2784 50.168 14.9091C50.2305 14.5426 50.2816 14.1676 50.3214 13.7841L50.3725 13.3068H51.4634ZM56.6847 14.5V13.733L59.5653 10.5795C59.9034 10.2102 60.1818 9.8892 60.4006 9.61648C60.6193 9.34091 60.7813 9.08239 60.8864 8.84091C60.9943 8.59659 61.0483 8.34091 61.0483 8.07386C61.0483 7.76705 60.9744 7.50142 60.8267 7.27699C60.6818 7.05256 60.483 6.87926 60.2301 6.7571C59.9773 6.63494 59.6932 6.57386 59.3778 6.57386C59.0426 6.57386 58.75 6.64347 58.5 6.78267C58.2528 6.91903 58.0611 7.1108 57.9247 7.35795C57.7912 7.60511 57.7244 7.89489 57.7244 8.22727H56.7188C56.7188 7.71591 56.8366 7.26705 57.0724 6.88068C57.3082 6.49432 57.6293 6.19318 58.0355 5.97727C58.4446 5.76136 58.9034 5.65341 59.4119 5.65341C59.9233 5.65341 60.3764 5.76136 60.7713 5.97727C61.1662 6.19318 61.4759 6.48437 61.7003 6.85085C61.9247 7.21733 62.0369 7.625 62.0369 8.07386C62.0369 8.39489 61.9787 8.70881 61.8622 9.01562C61.7486 9.3196 61.5497 9.65909 61.2656 10.0341C60.9844 10.4062 60.5938 10.8608 60.0938 11.3977L58.1335 13.4943V13.5625H62.1903V14.5H56.6847ZM66.7969 14.6193C66.1548 14.6193 65.608 14.4446 65.1562 14.0952C64.7045 13.7429 64.3594 13.233 64.1207 12.5653C63.8821 11.8949 63.7628 11.0852 63.7628 10.1364C63.7628 9.19318 63.8821 8.38778 64.1207 7.72017C64.3622 7.04972 64.7088 6.53835 65.1605 6.18608C65.6151 5.83097 66.1605 5.65341 66.7969 5.65341C67.4332 5.65341 67.9773 5.83097 68.429 6.18608C68.8835 6.53835 69.2301 7.04972 69.4688 7.72017C69.7102 8.38778 69.831 9.19318 69.831 10.1364C69.831 11.0852 69.7116 11.8949 69.473 12.5653C69.2344 13.233 68.8892 13.7429 68.4375 14.0952C67.9858 14.4446 67.4389 14.6193 66.7969 14.6193ZM66.7969 13.6818C67.4332 13.6818 67.9276 13.375 68.2798 12.7614C68.6321 12.1477 68.8082 11.2727 68.8082 10.1364C68.8082 9.38068 68.7273 8.73722 68.5653 8.20597C68.4063 7.67472 68.1761 7.26989 67.875 6.99148C67.5767 6.71307 67.2173 6.57386 66.7969 6.57386C66.1662 6.57386 65.6733 6.88494 65.3182 7.5071C64.9631 8.12642 64.7855 9.00284 64.7855 10.1364C64.7855 10.892 64.8651 11.5341 65.0241 12.0625C65.1832 12.5909 65.4119 12.9929 65.7102 13.2685C66.0114 13.544 66.3736 13.6818 66.7969 13.6818ZM71.4503 14.5V13.733L74.331 10.5795C74.669 10.2102 74.9474 9.8892 75.1662 9.61648C75.3849 9.34091 75.5469 9.08239 75.652 8.84091C75.7599 8.59659 75.8139 8.34091 75.8139 8.07386C75.8139 7.76705 75.7401 7.50142 75.5923 7.27699C75.4474 7.05256 75.2486 6.87926 74.9957 6.7571C74.7429 6.63494 74.4588 6.57386 74.1435 6.57386C73.8082 6.57386 73.5156 6.64347 73.2656 6.78267C73.0185 6.91903 72.8267 7.1108 72.6903 7.35795C72.5568 7.60511 72.4901 7.89489 72.4901 8.22727H71.4844C71.4844 7.71591 71.6023 7.26705 71.8381 6.88068C72.0739 6.49432 72.3949 6.19318 72.8011 5.97727C73.2102 5.76136 73.669 5.65341 74.1776 5.65341C74.6889 5.65341 75.142 5.76136 75.5369 5.97727C75.9318 6.19318 76.2415 6.48437 76.4659 6.85085C76.6903 7.21733 76.8026 7.625 76.8026 8.07386C76.8026 8.39489 76.7443 8.70881 76.6278 9.01562C76.5142 9.3196 76.3153 9.65909 76.0312 10.0341C75.75 10.4062 75.3594 10.8608 74.8594 11.3977L72.8991 13.4943V13.5625H76.956V14.5H71.4503ZM78.7159 14.5V13.733L81.5966 10.5795C81.9347 10.2102 82.2131 9.8892 82.4318 9.61648C82.6506 9.34091 82.8125 9.08239 82.9176 8.84091C83.0256 8.59659 83.0795 8.34091 83.0795 8.07386C83.0795 7.76705 83.0057 7.50142 82.858 7.27699C82.7131 7.05256 82.5142 6.87926 82.2614 6.7571C82.0085 6.63494 81.7244 6.57386 81.4091 6.57386C81.0739 6.57386 80.7812 6.64347 80.5312 6.78267C80.2841 6.91903 80.0923 7.1108 79.956 7.35795C79.8224 7.60511 79.7557 7.89489 79.7557 8.22727H78.75C78.75 7.71591 78.8679 7.26705 79.1037 6.88068C79.3395 6.49432 79.6605 6.19318 80.0668 5.97727C80.4759 5.76136 80.9347 5.65341 81.4432 5.65341C81.9545 5.65341 82.4077 5.76136 82.8026 5.97727C83.1974 6.19318 83.5071 6.48437 83.7315 6.85085C83.956 7.21733 84.0682 7.625 84.0682 8.07386C84.0682 8.39489 84.0099 8.70881 83.8935 9.01562C83.7798 9.3196 83.581 9.65909 83.2969 10.0341C83.0156 10.4062 82.625 10.8608 82.125 11.3977L80.1648 13.4943V13.5625H84.2216V14.5H78.7159Z" fill="#302C2C"/>
<path d="M105.058 8.23483V9.63599C105.058 9.8588 105.184 10.0625 105.383 10.1621L106.235 10.5878M110.94 9.99954C110.94 13.2483 108.307 15.8819 105.058 15.8819C101.809 15.8819 99.1758 13.2483 99.1758 9.99954C99.1758 6.75081 101.809 4.11719 105.058 4.11719C108.307 4.11719 110.94 6.75081 110.94 9.99954ZM109.176 9.99954C109.176 12.2737 107.332 14.1172 105.058 14.1172C102.784 14.1172 100.94 12.2737 100.94 9.99954C100.94 7.72543 102.784 5.88189 105.058 5.88189C107.332 5.88189 109.176 7.72543 109.176 9.99954Z" stroke="black" stroke-width="0.868432" stroke-linecap="round"/>
<path d="M117.728 13V12.233L120.608 9.07955C120.946 8.71023 121.225 8.3892 121.444 8.11648C121.662 7.84091 121.824 7.58239 121.929 7.34091C122.037 7.09659 122.091 6.84091 122.091 6.57386C122.091 6.26705 122.017 6.00142 121.87 5.77699C121.725 5.55256 121.526 5.37926 121.273 5.2571C121.02 5.13494 120.736 5.07386 120.421 5.07386C120.086 5.07386 119.793 5.14347 119.543 5.28267C119.296 5.41903 119.104 5.6108 118.968 5.85795C118.834 6.10511 118.767 6.39489 118.767 6.72727H117.762C117.762 6.21591 117.88 5.76705 118.115 5.38068C118.351 4.99432 118.672 4.69318 119.078 4.47727C119.488 4.26136 119.946 4.15341 120.455 4.15341C120.966 4.15341 121.419 4.26136 121.814 4.47727C122.209 4.69318 122.519 4.98437 122.743 5.35085C122.968 5.71733 123.08 6.125 123.08 6.57386C123.08 6.89489 123.022 7.20881 122.905 7.51562C122.792 7.8196 122.593 8.15909 122.309 8.53409C122.027 8.90625 121.637 9.3608 121.137 9.89773L119.176 11.9943V12.0625H123.233V13H117.728ZM127.84 13.1193C127.198 13.1193 126.651 12.9446 126.199 12.5952C125.748 12.2429 125.402 11.733 125.164 11.0653C124.925 10.3949 124.806 9.58523 124.806 8.63636C124.806 7.69318 124.925 6.88778 125.164 6.22017C125.405 5.54972 125.752 5.03835 126.203 4.68608C126.658 4.33097 127.203 4.15341 127.84 4.15341C128.476 4.15341 129.02 4.33097 129.472 4.68608C129.926 5.03835 130.273 5.54972 130.512 6.22017C130.753 6.88778 130.874 7.69318 130.874 8.63636C130.874 9.58523 130.755 10.3949 130.516 11.0653C130.277 11.733 129.932 12.2429 129.48 12.5952C129.029 12.9446 128.482 13.1193 127.84 13.1193ZM127.84 12.1818C128.476 12.1818 128.971 11.875 129.323 11.2614C129.675 10.6477 129.851 9.77273 129.851 8.63636C129.851 7.88068 129.77 7.23722 129.608 6.70597C129.449 6.17472 129.219 5.76989 128.918 5.49148C128.62 5.21307 128.26 5.07386 127.84 5.07386C127.209 5.07386 126.716 5.38494 126.361 6.0071C126.006 6.62642 125.828 7.50284 125.828 8.63636C125.828 9.39205 125.908 10.0341 126.067 10.5625C126.226 11.0909 126.455 11.4929 126.753 11.7685C127.054 12.044 127.417 12.1818 127.84 12.1818ZM139.465 11.6364L141.749 6.45455H142.703L139.874 13H139.056L136.277 6.45455H137.215L139.465 11.6364ZM136.891 6.45455V13H135.885V6.45455H136.891ZM142.039 13V6.45455H143.044V13H142.039ZM145.891 11.517L149.044 6.45455H150.203V13H149.198V7.9375L146.061 13H144.885V6.45455H145.891V11.517ZM156.426 9.26705V10.2045H152.812V9.26705H156.426ZM153.051 6.45455V13H152.045V6.45455H153.051ZM157.193 6.45455V13H156.188V6.45455H157.193ZM159.443 15.4545C159.273 15.4545 159.121 15.4403 158.987 15.4119C158.854 15.3864 158.761 15.3608 158.71 15.3352L158.966 14.4489C159.21 14.5114 159.426 14.5341 159.614 14.517C159.801 14.5 159.967 14.4162 160.112 14.2656C160.26 14.1179 160.395 13.8778 160.517 13.5455L160.705 13.0341L158.284 6.45455H159.375L161.182 11.6705H161.25L163.057 6.45455H164.148L161.369 13.9545C161.244 14.2926 161.089 14.5724 160.905 14.794C160.72 15.0185 160.506 15.1847 160.261 15.2926C160.02 15.4006 159.747 15.4545 159.443 15.4545ZM165.1 7.39205V6.45455H170.418V7.39205H168.271V13H167.265V7.39205H165.1Z" fill="black"/>
</svg>
