<svg width="164" height="637" viewBox="0 0 164 637" fill="none" xmlns="http://www.w3.org/2000/svg">
<rect width="164" height="637" rx="10" fill="black"/>
<path d="M68.8182 581.577L95 581.577L95 587.816L73.8807 587.816L73.8807 597.532L95 597.532L95 603.771L68.8182 603.771L68.8182 581.577ZM95.3707 567.509C95.3707 569.571 94.9489 571.344 94.1051 572.827C93.2528 574.301 92.0682 575.439 90.5511 576.24C89.0256 577.033 87.2571 577.429 85.2457 577.429C83.2259 577.429 81.4574 577.033 79.9403 576.24C78.4148 575.439 77.2301 574.301 76.3864 572.827C75.5341 571.344 75.108 569.571 75.108 567.509C75.108 565.446 75.5341 563.678 76.3864 562.203C77.2301 560.72 78.4148 559.582 79.9403 558.79C81.4574 557.989 83.2258 557.588 85.2457 557.588C87.2571 557.588 89.0256 557.989 90.5511 558.79C92.0682 559.582 93.2528 560.72 94.1051 562.203C94.9489 563.678 95.3707 565.446 95.3707 567.509ZM90.6534 567.47C90.6534 566.72 90.4233 566.085 89.9631 565.565C89.5028 565.045 88.8636 564.649 88.0455 564.376C87.2273 564.095 86.2812 563.955 85.2074 563.955C84.1165 563.955 83.1619 564.095 82.3437 564.376C81.5256 564.649 80.8864 565.045 80.4261 565.565C79.9659 566.085 79.7358 566.72 79.7358 567.47C79.7358 568.246 79.9659 568.902 80.4261 569.439C80.8864 569.967 81.5256 570.372 82.3437 570.653C83.1619 570.926 84.1165 571.062 85.2074 571.062C86.2812 571.062 87.2273 570.926 88.0455 570.653C88.8636 570.372 89.5028 569.967 89.9631 569.439C90.4233 568.902 90.6534 568.246 90.6534 567.47ZM95 555.344L90.1804 555.383L90.1804 554.756C90.1804 554.33 90.0696 553.96 89.848 553.644C89.6264 553.329 89.2727 553.065 88.7869 552.852C88.2926 552.638 87.6577 552.468 86.8821 552.34C86.1065 552.212 85.1648 552.131 84.0568 552.097L75.3636 551.778L75.3636 536.232L95 536.232L95 542.151L80.1449 542.151L80.1449 546.217L85.7955 546.523C87.4574 546.6 88.8764 546.817 90.0526 547.175C91.2202 547.525 92.1662 548.002 92.8906 548.607C93.6151 549.204 94.1477 549.911 94.4886 550.729C94.8295 551.548 95 552.472 95 553.504L95 555.344ZM81.0398 528.744L81.0398 522.787C81.0398 520.085 81.6747 517.967 82.9446 516.433C84.206 514.899 85.919 514.127 88.0838 514.119C89.4901 514.127 90.7131 514.481 91.7528 515.18C92.7841 515.87 93.5852 516.863 94.1562 518.159C94.7187 519.446 95 520.988 95 522.787L95 532.413L75.3636 532.413L75.3636 526.494L90.2187 526.494L90.2187 522.787C90.2187 521.968 90.0185 521.295 89.6179 520.767C89.2173 520.238 88.7017 519.97 88.071 519.961C87.4062 519.97 86.8651 520.238 86.4474 520.767C86.0298 521.295 85.821 521.968 85.821 522.787L85.821 528.744L81.0398 528.744ZM89.2472 511.76L89.2472 505.803C89.8267 505.786 90.2869 505.534 90.6278 505.049C90.9687 504.554 91.1392 503.919 91.1392 503.144C91.1392 502.36 90.9517 501.712 90.5767 501.201C90.1932 500.681 89.6648 500.421 88.9915 500.421C88.5824 500.421 88.2244 500.527 87.9176 500.74C87.6023 500.945 87.3551 501.235 87.1761 501.61C86.9972 501.976 86.9077 502.402 86.9077 502.888L86.9077 505.522L83.0597 505.522L83.0597 502.888C83.0597 502.164 82.8892 501.593 82.5483 501.175C82.2074 500.757 81.777 500.549 81.2571 500.549C80.669 500.549 80.1918 500.762 79.8253 501.188C79.4588 501.605 79.2756 502.164 79.2756 502.863C79.2756 503.553 79.4332 504.124 79.7486 504.576C80.0639 505.027 80.473 505.257 80.9758 505.266L80.9758 511.223C79.7571 511.215 78.7131 510.853 77.8437 510.137C76.9659 509.412 76.2926 508.441 75.8239 507.222C75.3466 505.995 75.108 504.631 75.108 503.131C75.108 501.452 75.3295 500.007 75.7727 498.797C76.2074 497.578 76.8381 496.645 77.6648 495.998C78.4829 495.35 79.4801 495.026 80.6562 495.026C81.679 495.026 82.544 495.38 83.2514 496.087C83.9588 496.786 84.4616 497.796 84.7599 499.117L84.9645 499.117C85.0071 498.29 85.2159 497.532 85.5909 496.841C85.9574 496.151 86.4773 495.593 87.1506 495.167C87.8153 494.74 88.6207 494.527 89.5668 494.527C90.7855 494.527 91.8295 494.898 92.6989 495.64C93.5597 496.381 94.2202 497.4 94.6804 498.695C95.1406 499.982 95.3707 501.461 95.3707 503.131C95.3707 504.759 95.1449 506.216 94.6932 507.503C94.233 508.782 93.5469 509.8 92.6349 510.559C91.723 511.317 90.5937 511.718 89.2472 511.76ZM95.3707 482.29C95.3707 484.352 94.9489 486.125 94.1051 487.608C93.2528 489.082 92.0682 490.22 90.5511 491.021C89.0256 491.814 87.2571 492.21 85.2457 492.21C83.2258 492.21 81.4574 491.814 79.9403 491.021C78.4148 490.22 77.2301 489.082 76.3864 487.608C75.5341 486.125 75.1079 484.352 75.1079 482.29C75.1079 480.227 75.5341 478.459 76.3864 476.984C77.2301 475.501 78.4148 474.364 79.9403 473.571C81.4574 472.77 83.2258 472.369 85.2457 472.369C87.2571 472.369 89.0256 472.77 90.5511 473.571C92.0682 474.364 93.2528 475.501 94.1051 476.984C94.9489 478.459 95.3707 480.227 95.3707 482.29ZM90.6534 482.251C90.6534 481.501 90.4233 480.866 89.9631 480.347C89.5028 479.827 88.8636 479.43 88.0454 479.158C87.2273 478.876 86.2812 478.736 85.2074 478.736C84.1165 478.736 83.1619 478.876 82.3437 479.158C81.5256 479.43 80.8864 479.827 80.4261 480.347C79.9659 480.866 79.7358 481.501 79.7358 482.251C79.7358 483.027 79.9659 483.683 80.4261 484.22C80.8864 484.749 81.5256 485.153 82.3437 485.435C83.1619 485.707 84.1165 485.844 85.2074 485.844C86.2812 485.844 87.2273 485.707 88.0454 485.435C88.8636 485.153 89.5028 484.749 89.9631 484.22C90.4233 483.683 90.6534 483.027 90.6534 482.251ZM95 469.167L75.3636 469.167L75.3636 460.691C75.3636 458.16 75.8196 456.165 76.7315 454.708C77.6349 453.242 78.9602 452.509 80.7074 452.509C81.7216 452.509 82.5952 452.923 83.3281 453.749C84.0526 454.567 84.5426 455.731 84.7983 457.239C84.8665 455.91 85.1307 454.806 85.5909 453.928C86.0511 453.05 86.6349 452.394 87.3423 451.96C88.0497 451.525 88.804 451.308 89.6051 451.308C90.7642 451.308 91.7443 451.619 92.5454 452.241C93.3466 452.863 93.956 453.775 94.3736 454.977C94.7912 456.17 95 457.636 95 459.374L95 469.167ZM90.4744 463.35L90.4744 459.374C90.4744 458.71 90.3168 458.19 90.0014 457.815C89.6861 457.431 89.2514 457.239 88.6974 457.239C88.1008 457.239 87.6321 457.431 87.2912 457.815C86.9503 458.19 86.7798 458.71 86.7798 459.374L86.7798 463.35L90.4744 463.35ZM83.392 463.35L83.392 460.525C83.392 460.073 83.3239 459.685 83.1875 459.362C83.0511 459.038 82.8551 458.79 82.5994 458.62C82.3437 458.441 82.0369 458.352 81.679 458.352C81.1591 458.352 80.75 458.56 80.4517 458.978C80.1534 459.387 80.0043 459.958 80.0043 460.691L80.0043 463.35L83.392 463.35ZM95.3324 442.678C95.3324 443.931 95.1236 445.043 94.706 446.015C94.2798 446.978 93.6406 447.741 92.7883 448.303C91.9275 448.857 90.8494 449.134 89.554 449.134C88.4631 449.134 87.5426 448.942 86.7926 448.559C86.0426 448.175 85.4332 447.647 84.9645 446.974C84.4957 446.3 84.142 445.525 83.9034 444.647C83.6562 443.769 83.49 442.832 83.4048 441.835C83.3025 440.718 83.196 439.819 83.0852 439.137C82.9659 438.455 82.7997 437.961 82.5866 437.654C82.365 437.339 82.054 437.181 81.6534 437.181L81.5895 437.181C80.9332 437.181 80.4261 437.407 80.0682 437.859C79.7102 438.31 79.5312 438.92 79.5312 439.687C79.5312 440.513 79.7102 441.178 80.0682 441.681C80.4261 442.184 80.9204 442.504 81.5511 442.64L81.3466 448.406C80.1534 448.235 79.0881 447.796 78.1506 447.089C77.2045 446.373 76.4631 445.393 75.9261 444.148C75.3807 442.896 75.1079 441.391 75.1079 439.636C75.1079 438.383 75.2571 437.228 75.5554 436.171C75.8452 435.114 76.2713 434.194 76.8338 433.41C77.3878 432.626 78.0696 432.021 78.8793 431.594C79.6889 431.16 80.6136 430.942 81.6534 430.942L95 430.942L95 436.823L92.2642 436.823L92.2642 436.977C92.929 437.326 93.4915 437.773 93.9517 438.319C94.4119 438.856 94.7571 439.491 94.9872 440.224C95.2173 440.948 95.3324 441.766 95.3324 442.678ZM91.2415 440.748C91.2415 440.075 91.1051 439.469 90.8324 438.933C90.5597 438.387 90.1847 437.952 89.7074 437.629C89.2216 437.305 88.6591 437.143 88.0199 437.143L86.1534 437.143C86.2472 437.322 86.3324 437.539 86.4091 437.795C86.4858 438.042 86.5582 438.315 86.6264 438.613C86.6946 438.911 86.7543 439.218 86.8054 439.533C86.8565 439.849 86.9034 440.151 86.946 440.441C87.0398 441.029 87.1847 441.532 87.3807 441.95C87.5767 442.359 87.8324 442.674 88.1477 442.896C88.4545 443.109 88.821 443.215 89.2472 443.215C89.8949 443.215 90.3892 442.985 90.7301 442.525C91.071 442.056 91.2415 441.464 91.2415 440.748ZM80.1449 428.855L75.3636 428.855L75.3636 410.446L80.1449 410.446L80.1449 416.723L95 416.723L95 422.655L80.1449 422.655L80.1449 428.855ZM95.3707 398.886C95.3707 400.94 94.9659 402.713 94.1562 404.205C93.3381 405.687 92.1747 406.83 90.6662 407.631C89.1491 408.423 87.3466 408.82 85.2585 408.82C83.2301 408.82 81.4574 408.419 79.9403 407.618C78.4148 406.817 77.2301 405.687 76.3864 404.23C75.5341 402.773 75.1079 401.055 75.1079 399.078C75.1079 397.68 75.3253 396.402 75.7599 395.243C76.1946 394.084 76.8381 393.082 77.6903 392.239C78.5426 391.395 79.5952 390.739 80.848 390.27C82.0923 389.801 83.5199 389.567 85.1307 389.567L86.6903 389.567L86.6903 406.634L83.0596 406.634L83.0596 395.384C82.3949 395.392 81.8025 395.55 81.2827 395.857C80.7628 396.163 80.3579 396.585 80.0682 397.122C79.7699 397.651 79.6207 398.26 79.6207 398.95C79.6207 399.649 79.7784 400.276 80.0937 400.83C80.4006 401.384 80.8224 401.822 81.3594 402.146C81.8878 402.47 82.4886 402.641 83.1619 402.658L86.8565 402.658C87.6577 402.658 88.3608 402.5 88.9659 402.185C89.5625 401.869 90.027 401.422 90.3594 400.842C90.6918 400.263 90.8579 399.572 90.8579 398.771C90.8579 398.217 90.7812 397.714 90.6278 397.263C90.4744 396.811 90.2486 396.423 89.9503 396.099C89.652 395.776 89.2855 395.533 88.8508 395.371L89.017 389.631C90.304 389.869 91.4247 390.393 92.3793 391.203C93.3253 392.004 94.0625 393.057 94.5909 394.361C95.1108 395.665 95.3707 397.173 95.3707 398.886ZM95 387.333L90.1804 387.371L90.1804 386.745C90.1804 386.319 90.0696 385.948 89.848 385.632C89.6264 385.317 89.2727 385.053 88.7869 384.84C88.2926 384.627 87.6577 384.456 86.8821 384.328C86.1065 384.201 85.1648 384.12 84.0568 384.086L75.3636 383.766L75.3636 368.221L95 368.221L95 374.14L80.1449 374.14L80.1449 378.205L85.7954 378.512C87.4574 378.588 88.8764 378.806 90.0525 379.164C91.2202 379.513 92.1662 379.99 92.8906 380.596C93.615 381.192 94.1477 381.9 94.4886 382.718C94.8295 383.536 95 384.461 95 385.492L95 387.333ZM81.0398 360.732L81.0398 354.775C81.0398 352.073 81.6747 349.955 82.9446 348.421C84.206 346.887 85.919 346.116 88.0838 346.107C89.49 346.116 90.7131 346.469 91.7528 347.168C92.7841 347.859 93.5852 348.852 94.1562 350.147C94.7187 351.434 95 352.977 95 354.775L95 364.401L75.3636 364.401L75.3636 358.482L90.2187 358.482L90.2187 354.775C90.2187 353.957 90.0185 353.283 89.6179 352.755C89.2173 352.227 88.7017 351.958 88.071 351.95C87.4062 351.958 86.865 352.227 86.4474 352.755C86.0298 353.283 85.821 353.957 85.821 354.775L85.821 360.732L81.0398 360.732ZM95.3707 333.649C95.3707 335.72 94.9446 337.497 94.0923 338.98C93.24 340.455 92.0554 341.588 90.5383 342.381C89.0128 343.173 87.2486 343.57 85.2457 343.57C83.2344 343.57 81.4702 343.173 79.9531 342.381C78.4275 341.58 77.2386 340.442 76.3864 338.967C75.5341 337.484 75.1079 335.716 75.1079 333.662C75.1079 331.847 75.4361 330.266 76.0923 328.919C76.7486 327.564 77.6775 326.507 78.8792 325.749C80.0724 324.982 81.4744 324.577 83.0852 324.534L83.0852 330.376C82.0795 330.496 81.2912 330.837 80.7202 331.399C80.1491 331.953 79.8636 332.678 79.8636 333.572C79.8636 334.297 80.0682 334.932 80.4773 335.477C80.8778 336.023 81.4744 336.449 82.267 336.756C83.0511 337.054 84.0227 337.203 85.1818 337.203C86.3409 337.203 87.321 337.054 88.1221 336.756C88.9148 336.449 89.5156 336.023 89.9247 335.477C90.3253 334.932 90.5256 334.297 90.5256 333.572C90.5256 332.993 90.402 332.482 90.1548 332.038C89.9077 331.587 89.5454 331.216 89.0682 330.926C88.5824 330.636 87.9943 330.453 87.304 330.376L87.304 324.534C88.9233 324.594 90.3381 324.999 91.5483 325.749C92.7585 326.49 93.7003 327.534 94.3736 328.881C95.0383 330.219 95.3707 331.808 95.3707 333.649ZM95 321.335L75.3636 321.335L75.3636 315.083L82.6761 315.083L82.6761 313.703L75.3636 308.934L75.3636 301.699L85.1946 308.308L95 301.635L95 308.96L88.4801 313.268L88.4801 315.083L95 315.083L95 321.335ZM95.3707 291.321C95.3707 293.384 94.9489 295.156 94.1051 296.639C93.2528 298.114 92.0682 299.251 90.5511 300.053C89.0256 300.845 87.2571 301.241 85.2457 301.241C83.2258 301.241 81.4574 300.845 79.9403 300.053C78.4148 299.251 77.2301 298.114 76.3863 296.639C75.5341 295.156 75.1079 293.384 75.1079 291.321C75.1079 289.259 75.5341 287.49 76.3863 286.016C77.2301 284.533 78.4148 283.395 79.9403 282.602C81.4574 281.801 83.2258 281.401 85.2457 281.401C87.2571 281.401 89.0256 281.801 90.5511 282.602C92.0682 283.395 93.2528 284.533 94.1051 286.016C94.9488 287.49 95.3707 289.259 95.3707 291.321ZM90.6534 291.283C90.6534 290.533 90.4233 289.898 89.9631 289.378C89.5028 288.858 88.8636 288.462 88.0454 288.189C87.2273 287.908 86.2812 287.767 85.2074 287.767C84.1165 287.767 83.1619 287.908 82.3437 288.189C81.5256 288.462 80.8863 288.858 80.4261 289.378C79.9659 289.898 79.7358 290.533 79.7358 291.283C79.7358 292.058 79.9659 292.714 80.4261 293.251C80.8863 293.78 81.5256 294.185 82.3437 294.466C83.1619 294.739 84.1165 294.875 85.2074 294.875C86.2812 294.875 87.2273 294.739 88.0454 294.466C88.8636 294.185 89.5028 293.78 89.9631 293.251C90.4233 292.714 90.6534 292.058 90.6534 291.283ZM95.3707 269.019C95.3707 271.073 94.9659 272.846 94.1562 274.337C93.3381 275.82 92.1747 276.962 90.6662 277.763C89.1491 278.556 87.3466 278.952 85.2585 278.952C83.2301 278.952 81.4574 278.552 79.9403 277.751C78.4148 276.95 77.2301 275.82 76.3863 274.363C75.5341 272.906 75.1079 271.188 75.1079 269.211C75.1079 267.813 75.3253 266.535 75.7599 265.376C76.1946 264.217 76.8381 263.215 77.6903 262.371C78.5426 261.528 79.5952 260.871 80.848 260.403C82.0923 259.934 83.5199 259.7 85.1307 259.7L86.6903 259.7L86.6903 276.766L83.0596 276.766L83.0596 265.516C82.3949 265.525 81.8025 265.683 81.2827 265.989C80.7628 266.296 80.3579 266.718 80.0682 267.255C79.7699 267.783 79.6207 268.393 79.6207 269.083C79.6207 269.782 79.7784 270.408 80.0937 270.962C80.4006 271.516 80.8224 271.955 81.3594 272.279C81.8878 272.603 82.4886 272.773 83.1619 272.79L86.8565 272.79C87.6577 272.79 88.3608 272.633 88.9659 272.317C89.5625 272.002 90.027 271.555 90.3594 270.975C90.6917 270.396 90.8579 269.705 90.8579 268.904C90.8579 268.35 90.7812 267.847 90.6278 267.396C90.4744 266.944 90.2486 266.556 89.9503 266.232C89.652 265.908 89.2855 265.665 88.8508 265.504L89.017 259.763C90.304 260.002 91.4247 260.526 92.3792 261.336C93.3253 262.137 94.0625 263.19 94.5909 264.494C95.1108 265.798 95.3707 267.306 95.3707 269.019ZM95.3707 239.606C95.3707 241.677 94.9446 243.454 94.0923 244.937C93.24 246.412 92.0554 247.545 90.5383 248.338C89.0128 249.13 87.2486 249.527 85.2457 249.527C83.2344 249.527 81.4702 249.13 79.9531 248.338C78.4275 247.537 77.2386 246.399 76.3863 244.924C75.5341 243.441 75.1079 241.673 75.1079 239.619C75.1079 237.804 75.4361 236.223 76.0923 234.876C76.7486 233.521 77.6775 232.464 78.8792 231.706C80.0724 230.939 81.4744 230.534 83.0852 230.491L83.0852 236.333C82.0795 236.453 81.2912 236.794 80.7202 237.356C80.1491 237.91 79.8636 238.635 79.8636 239.529C79.8636 240.254 80.0682 240.889 80.4773 241.434C80.8778 241.98 81.4744 242.406 82.267 242.713C83.0511 243.011 84.0227 243.16 85.1818 243.16C86.3409 243.16 87.321 243.011 88.1221 242.713C88.9148 242.406 89.5156 241.98 89.9247 241.434C90.3253 240.889 90.5256 240.254 90.5256 239.529C90.5256 238.95 90.402 238.439 90.1548 237.995C89.9077 237.544 89.5454 237.173 89.0682 236.883C88.5824 236.593 87.9943 236.41 87.304 236.333L87.304 230.491C88.9233 230.551 90.3381 230.956 91.5483 231.706C92.7585 232.447 93.7003 233.491 94.3736 234.838C95.0383 236.176 95.3707 237.765 95.3707 239.606ZM95.3707 218.126C95.3707 220.188 94.9488 221.961 94.1051 223.444C93.2528 224.918 92.0682 226.056 90.5511 226.857C89.0256 227.65 87.2571 228.046 85.2457 228.046C83.2258 228.046 81.4574 227.65 79.9403 226.857C78.4148 226.056 77.2301 224.918 76.3863 223.444C75.5341 221.961 75.1079 220.188 75.1079 218.126C75.1079 216.063 75.5341 214.295 76.3863 212.82C77.2301 211.337 78.4148 210.2 79.9403 209.407C81.4574 208.606 83.2258 208.205 85.2457 208.205C87.2571 208.205 89.0256 208.606 90.5511 209.407C92.0682 210.2 93.2528 211.337 94.1051 212.82C94.9488 214.295 95.3707 216.063 95.3707 218.126ZM90.6534 218.087C90.6534 217.337 90.4233 216.702 89.9631 216.183C89.5028 215.663 88.8636 215.266 88.0454 214.994C87.2273 214.712 86.2812 214.572 85.2074 214.572C84.1165 214.572 83.1619 214.712 82.3437 214.994C81.5256 215.266 80.8863 215.663 80.4261 216.183C79.9659 216.702 79.7358 217.337 79.7358 218.087C79.7358 218.863 79.9659 219.519 80.4261 220.056C80.8863 220.585 81.5256 220.989 82.3437 221.271C83.1619 221.543 84.1165 221.68 85.2074 221.68C86.2812 221.68 87.2273 221.543 88.0454 221.271C88.8636 220.989 89.5028 220.585 89.9631 220.056C90.4233 219.519 90.6534 218.863 90.6534 218.087ZM75.3636 191.119L80.1449 191.119L80.1449 198.956L95 198.956L95 205.003L75.3636 205.003L75.3636 191.119ZM95 190.704L90.1804 190.742L90.1804 190.116C90.1804 189.69 90.0696 189.319 89.848 189.004C89.6264 188.688 89.2727 188.424 88.7869 188.211C88.2926 187.998 87.6577 187.827 86.8821 187.7C86.1065 187.572 85.1648 187.491 84.0568 187.457L75.3636 187.137L75.3636 171.592L95 171.592L95 177.511L80.1449 177.511L80.1449 181.576L85.7954 181.883C87.4574 181.96 88.8764 182.177 90.0525 182.535C91.2202 182.884 92.1662 183.362 92.8906 183.967C93.615 184.563 94.1477 185.271 94.4886 186.089C94.8295 186.907 95 187.832 95 188.863L95 190.704ZM95.3324 162.237C95.3324 163.49 95.1236 164.602 94.7059 165.574C94.2798 166.537 93.6406 167.299 92.7883 167.862C91.9275 168.416 90.8494 168.693 89.554 168.693C88.463 168.693 87.5426 168.501 86.7926 168.118C86.0426 167.734 85.4332 167.206 84.9645 166.532C84.4957 165.859 84.142 165.083 83.9034 164.206C83.6562 163.328 83.49 162.39 83.4048 161.393C83.3025 160.277 83.196 159.377 83.0852 158.696C82.9659 158.014 82.7997 157.52 82.5866 157.213C82.365 156.897 82.054 156.74 81.6534 156.74L81.5895 156.74C80.9332 156.74 80.4261 156.966 80.0682 157.417C79.7102 157.869 79.5312 158.478 79.5312 159.245C79.5312 160.072 79.7102 160.737 80.0682 161.24C80.4261 161.743 80.9204 162.062 81.5511 162.199L81.3466 167.964C80.1534 167.794 79.088 167.355 78.1505 166.647C77.2045 165.931 76.463 164.951 75.9261 163.707C75.3807 162.454 75.1079 160.95 75.1079 159.194C75.1079 157.941 75.2571 156.787 75.5554 155.73C75.8451 154.673 76.2713 153.752 76.8338 152.968C77.3878 152.184 78.0696 151.579 78.8792 151.153C79.6889 150.718 80.6136 150.501 81.6534 150.501L95 150.501L95 156.382L92.2642 156.382L92.2642 156.535C92.929 156.885 93.4915 157.332 93.9517 157.877C94.4119 158.414 94.7571 159.049 94.9872 159.782C95.2173 160.507 95.3324 161.325 95.3324 162.237ZM91.2415 160.306C91.2415 159.633 91.1051 159.028 90.8324 158.491C90.5596 157.946 90.1846 157.511 89.7074 157.187C89.2216 156.863 88.6591 156.701 88.0199 156.701L86.1534 156.701C86.2471 156.88 86.3324 157.098 86.4091 157.353C86.4858 157.6 86.5582 157.873 86.6264 158.172C86.6946 158.47 86.7542 158.777 86.8054 159.092C86.8565 159.407 86.9034 159.71 86.946 160C87.0398 160.588 87.1846 161.091 87.3807 161.508C87.5767 161.917 87.8324 162.233 88.1477 162.454C88.4545 162.667 88.821 162.774 89.2471 162.774C89.8949 162.774 90.3892 162.544 90.7301 162.083C91.071 161.615 91.2415 161.022 91.2415 160.306ZM75.3636 146.679L75.3636 140.76L90.1804 140.76L90.1804 135.838L75.3636 135.838L75.3636 129.919L90.1804 129.919L90.1804 124.997L75.3636 124.997L75.3636 119.078L95 119.078L95 146.679L75.3636 146.679ZM95.3707 106.105C95.3707 108.159 94.9659 109.932 94.1562 111.423C93.338 112.906 92.1747 114.048 90.6662 114.849C89.1491 115.642 87.3466 116.038 85.2585 116.038C83.2301 116.038 81.4574 115.638 79.9403 114.837C78.4148 114.036 77.2301 112.906 76.3863 111.449C75.5341 109.991 75.1079 108.274 75.1079 106.297C75.1079 104.899 75.3253 103.621 75.7599 102.462C76.1946 101.303 76.838 100.301 77.6903 99.4574C78.5426 98.6136 79.5951 97.9574 80.848 97.4886C82.0923 97.0199 83.5199 96.7855 85.1307 96.7855L86.6903 96.7855L86.6903 113.852L83.0596 113.852L83.0596 102.602C82.3949 102.611 81.8025 102.768 81.2826 103.075C80.7628 103.382 80.3579 103.804 80.0682 104.341C79.7699 104.869 79.6207 105.479 79.6207 106.169C79.6207 106.868 79.7784 107.494 80.0937 108.048C80.4005 108.602 80.8224 109.041 81.3594 109.365C81.8878 109.689 82.4886 109.859 83.1619 109.876L86.8565 109.876C87.6576 109.876 88.3608 109.719 88.9659 109.403C89.5625 109.088 90.027 108.641 90.3594 108.061C90.6917 107.482 90.8579 106.791 90.8579 105.99C90.8579 105.436 90.7812 104.933 90.6278 104.482C90.4744 104.03 90.2486 103.642 89.9503 103.318C89.652 102.994 89.2855 102.751 88.8508 102.589L89.017 96.8494C90.304 97.0881 91.4247 97.6122 92.3792 98.4219C93.3253 99.223 94.0625 100.276 94.5909 101.58C95.1108 102.884 95.3707 104.392 95.3707 106.105ZM82.74 79.7475L87.5085 79.7475L87.5085 89.8214L82.74 89.8214L82.74 79.7475ZM75.3636 87.6736L95 87.6736L95 93.5927L75.3636 93.5927L75.3636 87.6736ZM75.3636 75.9762L95 75.9762L95 81.8569L75.3636 81.8569L75.3636 75.9762ZM86.9076 66.2635L75.3636 59.9865L75.3636 53.978L95 53.978L95 59.897L83.4176 59.897L95 66.1612L95 72.1825L75.3636 72.1825L75.3636 66.2635L86.9076 66.2635ZM95.3707 40.82C95.3707 42.8739 94.9659 44.6467 94.1562 46.1381C93.338 47.6211 92.1747 48.7631 90.6662 49.5643C89.1491 50.3569 87.3466 50.7532 85.2585 50.7532C83.2301 50.7532 81.4574 50.3526 79.9403 49.5515C78.4147 48.7504 77.2301 47.6211 76.3863 46.1637C75.5341 44.7063 75.1079 42.989 75.1079 41.0117C75.1079 39.614 75.3253 38.3356 75.7599 37.1765C76.1946 36.0174 76.838 35.016 77.6903 34.1722C78.5426 33.3285 79.5951 32.6722 80.848 32.2035C82.0923 31.7347 83.5199 31.5004 85.1307 31.5004L86.6903 31.5004L86.6903 48.5671L83.0596 48.5671L83.0596 37.3171C82.3949 37.3256 81.8025 37.4833 81.2826 37.7901C80.7628 38.0969 80.3579 38.5188 80.0682 39.0558C79.7699 39.5842 79.6207 40.1935 79.6207 40.8839C79.6207 41.5827 79.7784 42.2092 80.0937 42.7631C80.4005 43.3171 80.8224 43.756 81.3594 44.0799C81.8878 44.4038 82.4886 44.5742 83.1619 44.5913L86.8565 44.5913C87.6576 44.5913 88.3608 44.4336 88.9659 44.1183C89.5625 43.8029 90.027 43.3555 90.3594 42.7759C90.6917 42.1964 90.8579 41.506 90.8579 40.7049C90.8579 40.1509 90.7812 39.6481 90.6278 39.1964C90.4744 38.7447 90.2486 38.3569 89.9503 38.033C89.652 37.7092 89.2855 37.4663 88.8508 37.3043L89.017 31.5643C90.304 31.8029 91.4247 32.3271 92.3792 33.1367C93.3253 33.9379 94.0625 34.9904 94.5909 36.2944C95.1108 37.5984 95.3707 39.1069 95.3707 40.82Z" fill="white"/>
</svg>
