<svg width="156" height="368" viewBox="0 0 156 368" fill="none" xmlns="http://www.w3.org/2000/svg">
<g filter="url(#filter0_d_2688_3575)">
<rect x="4" width="148" height="360" rx="10" fill="black" shape-rendering="crispEdges"/>
<path d="M49.9293 288.389L70.293 288.389L70.293 292.048L52.9918 292.048L52.9918 300.957L70.293 300.957L70.293 304.616L49.9293 304.616L49.9293 288.389ZM70.5913 278.006C70.5913 279.497 70.2631 280.79 69.6069 281.883C68.9506 282.977 68.0326 283.826 66.8526 284.429C65.6727 285.025 64.2939 285.324 62.7163 285.324C61.1386 285.324 59.7565 285.025 58.57 284.429C57.3834 283.826 56.462 282.977 55.8058 281.883C55.1495 280.79 54.8214 279.497 54.8214 278.006C54.8214 276.514 55.1495 275.221 55.8058 274.128C56.462 273.034 57.3834 272.189 58.57 271.592C59.7565 270.989 61.1386 270.687 62.7163 270.687C64.2939 270.687 65.6727 270.989 66.8526 271.592C68.0325 272.189 68.9506 273.034 69.6069 274.128C70.2631 275.221 70.5913 276.514 70.5913 278.006ZM67.7077 277.986C67.7077 277.177 67.4857 276.501 67.0415 275.957C66.5908 275.414 65.9876 275.009 65.2319 274.744C64.4762 274.472 63.6343 274.336 62.7063 274.336C61.7717 274.336 60.9265 274.472 60.1708 274.744C59.4085 275.009 58.802 275.414 58.3512 275.957C57.9004 276.501 57.6751 277.177 57.6751 277.986C57.6751 278.814 57.9004 279.504 58.3512 280.054C58.802 280.597 59.4085 281.005 60.1708 281.277C60.9265 281.542 61.7717 281.675 62.7063 281.675C63.6343 281.675 64.4762 281.542 65.2319 281.277C65.9876 281.005 66.5908 280.597 67.0415 280.054C67.4857 279.504 67.7077 278.814 67.7077 277.986ZM70.293 269.218L67.3299 269.238L67.3299 268.711C67.3299 268.313 67.2404 267.979 67.0614 267.707C66.8825 267.435 66.5842 267.21 66.1665 267.031C65.7423 266.852 65.1722 266.713 64.4563 266.613C63.7404 266.514 62.8488 266.444 61.7816 266.404L55.0202 266.136L55.0202 255L70.293 255L70.293 258.48L57.9734 258.48L57.9734 262.865L62.8952 263.103C64.168 263.163 65.2717 263.305 66.2063 263.531C67.1343 263.75 67.9 264.061 68.5032 264.465C69.1064 264.863 69.5572 265.364 69.8555 265.967C70.1471 266.57 70.293 267.283 70.293 268.105L70.293 269.218ZM59.9918 249.471L59.9918 244.967C59.9918 243.018 60.4658 241.51 61.4137 240.443C62.3616 239.376 63.6045 238.839 65.1424 238.832C66.1433 238.839 67.0316 239.084 67.8072 239.568C68.5827 240.045 69.1926 240.741 69.6367 241.656C70.0742 242.564 70.293 243.668 70.293 244.967L70.293 251.907L55.0202 251.907L55.0202 248.437L67.3398 248.437L67.3398 244.967C67.3398 244.185 67.141 243.542 66.7432 243.038C66.3389 242.534 65.8218 242.282 65.1921 242.282C64.5292 242.282 63.989 242.534 63.5714 243.038C63.1538 243.542 62.945 244.185 62.945 244.967L62.945 249.471L59.9918 249.471ZM66.1069 237.124L66.1069 233.555C66.677 233.522 67.1178 233.266 67.4293 232.789C67.7409 232.312 67.8967 231.692 67.8967 230.93C67.8967 230.154 67.7276 229.501 67.3896 228.971C67.0449 228.434 66.5245 228.165 65.8285 228.165C65.4175 228.165 65.0562 228.268 64.7447 228.474C64.4265 228.679 64.1812 228.968 64.0089 229.339C63.8365 229.71 63.7504 230.147 63.7504 230.651L63.7504 232.988L61.195 232.988L61.195 230.651C61.195 229.902 61.0226 229.335 60.6779 228.951C60.3332 228.56 59.899 228.364 59.3754 228.364C58.8119 228.364 58.3545 228.57 58.0032 228.981C57.6519 229.385 57.4762 229.945 57.4762 230.661C57.4762 231.377 57.6386 231.974 57.9634 232.451C58.2882 232.922 58.7058 233.167 59.2163 233.187L59.2163 236.736C58.328 236.723 57.5557 236.458 56.8995 235.941C56.2432 235.417 55.7328 234.715 55.3682 233.833C55.0037 232.945 54.8214 231.944 54.8214 230.83C54.8214 229.637 55.0004 228.606 55.3583 227.738C55.7163 226.87 56.2167 226.2 56.8597 225.729C57.4961 225.259 58.2451 225.023 59.1069 225.023C59.9355 225.023 60.6216 225.282 61.1651 225.799C61.7021 226.316 62.0865 227.012 62.3185 227.887L62.4776 227.887C62.5108 227.284 62.6831 226.74 62.9947 226.256C63.2996 225.772 63.7139 225.388 64.2376 225.103C64.7612 224.818 65.3678 224.675 66.0572 224.675C66.9918 224.675 67.8005 224.944 68.4833 225.481C69.1594 226.018 69.6798 226.757 70.0444 227.698C70.409 228.633 70.5913 229.703 70.5913 230.91C70.5913 232.083 70.4156 233.134 70.0643 234.062C69.7063 234.983 69.1926 235.716 68.5231 236.259C67.8536 236.803 67.0482 237.091 66.1069 237.124ZM70.5913 215.712C70.5913 217.203 70.2631 218.496 69.6069 219.589C68.9506 220.683 68.0325 221.532 66.8526 222.135C65.6727 222.732 64.2939 223.03 62.7163 223.03C61.1386 223.03 59.7565 222.732 58.57 222.135C57.3834 221.532 56.462 220.683 55.8057 219.589C55.1495 218.496 54.8214 217.203 54.8214 215.712C54.8214 214.22 55.1495 212.928 55.8057 211.834C56.462 210.74 57.3834 209.895 58.57 209.298C59.7565 208.695 61.1386 208.393 62.7163 208.393C64.2939 208.393 65.6727 208.695 66.8526 209.298C68.0325 209.895 68.9506 210.74 69.6069 211.834C70.2631 212.928 70.5913 214.22 70.5913 215.712ZM67.7077 215.692C67.7077 214.883 67.4857 214.207 67.0415 213.663C66.5908 213.12 65.9876 212.715 65.2319 212.45C64.4762 212.179 63.6343 212.043 62.7063 212.043C61.7717 212.043 60.9265 212.179 60.1708 212.45C59.4085 212.715 58.802 213.12 58.3512 213.663C57.9004 214.207 57.6751 214.883 57.6751 215.692C57.6751 216.52 57.9004 217.21 58.3512 217.76C58.802 218.304 59.4085 218.711 60.1708 218.983C60.9265 219.248 61.7717 219.381 62.7063 219.381C63.6343 219.381 64.4762 219.248 65.2319 218.983C65.9876 218.711 66.5908 218.304 67.0415 217.76C67.4857 217.21 67.7077 216.52 67.7077 215.692ZM70.293 205.87L55.0202 205.87L55.0202 199.457C55.0202 197.647 55.3815 196.219 56.104 195.172C56.8266 194.118 57.8342 193.591 59.1268 193.591C59.9819 193.591 60.6812 193.889 61.2248 194.485C61.7617 195.075 62.123 195.881 62.3086 196.902C62.3749 196.1 62.5771 195.397 62.9151 194.794C63.2532 194.184 63.6973 193.707 64.2475 193.362C64.7977 193.017 65.4307 192.845 66.1467 192.845C66.9885 192.845 67.721 193.067 68.3441 193.511C68.9606 193.949 69.4412 194.588 69.7859 195.43C70.1239 196.265 70.293 197.28 70.293 198.473L70.293 205.87ZM67.4592 202.5L67.4592 198.473C67.4592 197.81 67.3034 197.289 66.9918 196.912C66.6736 196.534 66.2428 196.345 65.6992 196.345C65.0695 196.345 64.5756 196.534 64.2177 196.912C63.8531 197.289 63.6708 197.81 63.6708 198.473L63.6708 202.5L67.4592 202.5ZM61.3441 202.5L61.3441 199.387C61.3441 198.897 61.2745 198.476 61.1353 198.125C60.9895 197.773 60.7873 197.505 60.5288 197.319C60.2636 197.134 59.9487 197.041 59.5842 197.041C59.0605 197.041 58.6495 197.256 58.3512 197.687C58.0529 198.111 57.9038 198.701 57.9038 199.457L57.9038 202.5L61.3441 202.5ZM70.6012 186.011C70.6012 186.979 70.4289 187.851 70.0842 188.627C69.7328 189.395 69.2158 190.005 68.533 190.456C67.8503 190.9 67.0084 191.122 66.0075 191.122C65.1457 191.122 64.4331 190.963 63.8697 190.645C63.3062 190.327 62.8555 189.893 62.5174 189.342C62.1793 188.792 61.9241 188.172 61.7518 187.483C61.5728 186.787 61.4435 186.068 61.364 185.325C61.2712 184.43 61.1883 183.705 61.1154 183.148C61.0359 182.591 60.9165 182.187 60.7575 181.935C60.5917 181.676 60.3365 181.547 59.9918 181.547L59.9322 181.547C59.1831 181.547 58.6031 181.769 58.1921 182.213C57.7811 182.657 57.5756 183.297 57.5756 184.132C57.5756 185.014 57.7679 185.713 58.1523 186.23C58.5368 186.741 58.9909 187.085 59.5146 187.264L59.0373 190.625C58.1093 190.36 57.3337 189.922 56.7106 189.313C56.0808 188.703 55.6102 187.957 55.2986 187.075C54.9805 186.194 54.8214 185.219 54.8214 184.152C54.8214 183.416 54.9075 182.684 55.0799 181.955C55.2522 181.225 55.5373 180.559 55.935 179.956C56.3261 179.353 56.8597 178.869 57.5359 178.504C58.212 178.133 59.0572 177.948 60.0714 177.948L70.293 177.948L70.293 181.408L68.195 181.408L68.195 181.527C68.6192 181.746 69.0169 182.054 69.3881 182.452C69.7527 182.843 70.0477 183.337 70.2731 183.933C70.4918 184.523 70.6012 185.216 70.6012 186.011ZM67.9563 185.077C67.9563 184.354 67.8138 183.728 67.5288 183.198C67.2371 182.667 66.8526 182.26 66.3753 181.975C65.8981 181.683 65.3777 181.537 64.8143 181.537L63.0146 181.537C63.1074 181.65 63.1935 181.842 63.2731 182.114C63.3526 182.379 63.4222 182.677 63.4819 183.009C63.5415 183.34 63.5946 183.668 63.641 183.993C63.6874 184.318 63.7271 184.6 63.7603 184.838C63.8332 185.375 63.9525 185.856 64.1182 186.28C64.284 186.704 64.516 187.039 64.8143 187.284C65.1059 187.529 65.4838 187.652 65.9478 187.652C66.6107 187.652 67.1111 187.41 67.4492 186.926C67.7873 186.442 67.9563 185.826 67.9563 185.077ZM57.9734 176.57L55.0202 176.57L55.0202 163.207L57.9734 163.207L57.9734 168.149L70.293 168.149L70.293 171.629L57.9734 171.629L57.9734 176.57ZM70.5913 154.74C70.5913 156.271 70.2731 157.594 69.6367 158.708C68.9937 159.815 68.0856 160.666 66.9123 161.263C65.7324 161.86 64.3436 162.158 62.7461 162.158C61.1751 162.158 59.7963 161.86 58.6097 161.263C57.4165 160.66 56.4885 159.818 55.8256 158.737C55.1561 157.657 54.8214 156.387 54.8214 154.929C54.8214 153.988 54.9738 153.1 55.2788 152.264C55.5771 151.423 56.0411 150.68 56.6708 150.037C57.3005 149.387 58.1026 148.877 59.0771 148.506C60.0449 148.135 61.1983 147.949 62.5373 147.949L63.641 147.949L63.641 160.467L61.2148 160.467L61.2148 151.399C60.5254 151.406 59.9123 151.555 59.3753 151.847C58.8318 152.138 58.4042 152.546 58.0927 153.07C57.7811 153.587 57.6253 154.19 57.6253 154.879C57.6253 155.615 57.8043 156.262 58.1623 156.818C58.5136 157.375 58.9776 157.809 59.5543 158.121C60.1244 158.426 60.7508 158.582 61.4336 158.588L63.5515 158.588C64.4397 158.588 65.2021 158.426 65.8384 158.101C66.4682 157.776 66.9521 157.322 67.2901 156.739C67.6216 156.155 67.7873 155.473 67.7873 154.69C67.7873 154.167 67.7144 153.693 67.5685 153.269C67.4161 152.844 67.194 152.476 66.9023 152.165C66.6107 151.853 66.2494 151.618 65.8185 151.459L66.1964 148.098C67.0846 148.31 67.8602 148.715 68.5231 149.311C69.1793 149.901 69.6897 150.657 70.0543 151.578C70.4123 152.5 70.5913 153.554 70.5913 154.74ZM70.293 146.49L67.3299 146.51L67.3299 145.983C67.3299 145.585 67.2404 145.25 67.0614 144.979C66.8824 144.707 66.5842 144.481 66.1665 144.302C65.7423 144.123 65.1722 143.984 64.4563 143.885C63.7404 143.785 62.8488 143.716 61.7816 143.676L55.0202 143.408L55.0202 132.271L70.293 132.271L70.293 135.751L57.9734 135.751L57.9734 140.136L62.8952 140.375C64.168 140.435 65.2717 140.577 66.2063 140.802C67.1343 141.021 67.9 141.333 68.5032 141.737C69.1064 142.135 69.5572 142.635 69.8555 143.238C70.1471 143.842 70.293 144.554 70.293 145.376L70.293 146.49ZM59.9918 126.743L59.9918 122.239C59.9918 120.29 60.4658 118.782 61.4137 117.714C62.3616 116.647 63.6045 116.11 65.1424 116.104C66.1433 116.11 67.0316 116.355 67.8072 116.839C68.5827 117.317 69.1926 118.013 69.6367 118.927C70.0742 119.836 70.293 120.939 70.293 122.239L70.293 129.179L55.0202 129.179L55.0202 125.709L67.3398 125.709L67.3398 122.239C67.3398 121.456 67.141 120.813 66.7432 120.31C66.3389 119.806 65.8218 119.554 65.1921 119.554C64.5292 119.554 63.989 119.806 63.5714 120.31C63.1538 120.813 62.9449 121.456 62.9449 122.239L62.9449 126.743L59.9918 126.743ZM70.5913 106.889C70.5913 108.413 70.2565 109.723 69.587 110.816C68.9175 111.903 67.9928 112.742 66.8128 113.332C65.6263 113.915 64.2608 114.207 62.7163 114.207C61.1651 114.207 59.7963 113.909 58.6097 113.312C57.4165 112.715 56.4885 111.874 55.8256 110.787C55.1561 109.693 54.8214 108.4 54.8214 106.909C54.8214 105.669 55.0501 104.572 55.5074 103.617C55.9582 102.656 56.5979 101.891 57.4265 101.321C58.2485 100.751 59.2096 100.426 60.31 100.346L60.31 103.787C59.5742 103.926 58.961 104.257 58.4705 104.781C57.9734 105.298 57.7248 105.991 57.7248 106.859C57.7248 107.595 57.9236 108.241 58.3214 108.798C58.7125 109.355 59.2759 109.789 60.0117 110.1C60.7475 110.405 61.6291 110.558 62.6566 110.558C63.6973 110.558 64.5922 110.405 65.3413 110.1C66.0837 109.796 66.6571 109.368 67.0614 108.818C67.4592 108.261 67.658 107.608 67.658 106.859C67.658 106.329 67.5586 105.855 67.3597 105.437C67.1542 105.013 66.8592 104.658 66.4748 104.373C66.0903 104.088 65.623 103.893 65.0728 103.787L65.0728 100.346C66.1533 100.432 67.1111 100.751 67.9464 101.301C68.775 101.851 69.4246 102.6 69.8952 103.548C70.3592 104.496 70.5913 105.609 70.5913 106.889ZM70.293 97.9226L55.0202 97.9226L55.0202 94.3231L61.185 94.3231L61.185 93.0106L55.0202 88.4169L55.0202 84.0816L62.5174 89.7393L70.293 84.022L70.293 88.3771L64.5359 92.5632L64.5359 94.3231L70.293 94.3231L70.293 97.9226ZM70.5913 76.4801C70.5913 77.9716 70.2631 79.2642 69.6069 80.358C68.9506 81.4517 68.0325 82.3002 66.8526 82.9034C65.6727 83.5 64.2939 83.7983 62.7163 83.7983C61.1386 83.7983 59.7565 83.5 58.5699 82.9034C57.3834 82.3002 56.462 81.4517 55.8057 80.358C55.1495 79.2642 54.8214 77.9716 54.8214 76.4801C54.8214 74.9886 55.1495 73.696 55.8057 72.6023C56.462 71.5085 57.3834 70.6634 58.5699 70.0668C59.7565 69.4635 61.1386 69.1619 62.7163 69.1619C64.2939 69.1619 65.6727 69.4635 66.8526 70.0668C68.0325 70.6634 68.9506 71.5085 69.6069 72.6023C70.2631 73.696 70.5913 74.9886 70.5913 76.4801ZM67.7077 76.4602C67.7077 75.6515 67.4857 74.9754 67.0415 74.4318C66.5908 73.8883 65.9876 73.4839 65.2319 73.2188C64.4762 72.947 63.6343 72.8111 62.7063 72.8111C61.7717 72.8111 60.9265 72.947 60.1708 73.2188C59.4085 73.4839 58.802 73.8883 58.3512 74.4318C57.9004 74.9754 57.6751 75.6515 57.6751 76.4602C57.6751 77.2888 57.9004 77.9782 58.3512 78.5284C58.802 79.072 59.4085 79.4796 60.1708 79.7514C60.9265 80.0166 61.7717 80.1492 62.7063 80.1492C63.6343 80.1492 64.4762 80.0166 65.2319 79.7514C65.9876 79.4796 66.5908 79.072 67.0415 78.5284C67.4857 77.9782 67.7077 77.2888 67.7077 76.4602ZM70.5913 59.8775C70.5913 61.4088 70.2731 62.7312 69.6367 63.8449C68.9937 64.9519 68.0856 65.8037 66.9123 66.4003C65.7324 66.9968 64.3436 67.2951 62.7461 67.2951C61.1751 67.2951 59.7963 66.9968 58.6097 66.4003C57.4165 65.797 56.4885 64.9552 55.8256 63.8747C55.1561 62.7942 54.8214 61.5248 54.8214 60.0665C54.8214 59.1252 54.9738 58.2369 55.2788 57.4017C55.577 56.5598 56.0411 55.8174 56.6708 55.1744C57.3005 54.5248 58.1026 54.0144 59.077 53.6432C60.0449 53.2719 61.1983 53.0863 62.5373 53.0863L63.641 53.0863L63.641 65.6048L61.2148 65.6048L61.2148 56.5366C60.5254 56.5432 59.9123 56.6924 59.3753 56.9841C58.8318 57.2757 58.4042 57.6834 58.0927 58.2071C57.7811 58.7241 57.6253 59.3273 57.6253 60.0167C57.6253 60.7525 57.8043 61.3988 58.1623 61.9557C58.5136 62.5125 58.9776 62.9467 59.5543 63.2582C60.1244 63.5631 60.7508 63.7189 61.4336 63.7255L63.5515 63.7255C64.4397 63.7255 65.202 63.5631 65.8384 63.2383C66.4681 62.9135 66.952 62.4594 67.2901 61.8761C67.6216 61.2928 67.7873 60.61 67.7873 59.8278C67.7873 59.3041 67.7144 58.8302 67.5685 58.4059C67.4161 57.9817 67.194 57.6138 66.9023 57.3022C66.6107 56.9907 66.2494 56.7554 65.8185 56.5963L66.1964 53.2355C67.0846 53.4476 67.8602 53.852 68.5231 54.4486C69.1793 55.0385 69.6897 55.7942 70.0543 56.7156C70.4123 57.637 70.5913 58.691 70.5913 59.8775ZM98.5913 252.867C98.5913 254.391 98.2565 255.701 97.587 256.794C96.9175 257.881 95.9928 258.72 94.8129 259.31C93.6263 259.893 92.2608 260.185 90.7163 260.185C89.1651 260.185 87.7963 259.887 86.6097 259.29C85.4165 258.693 84.4885 257.852 83.8256 256.765C83.1561 255.671 82.8214 254.378 82.8214 252.887C82.8214 251.647 83.0501 250.55 83.5075 249.595C83.9582 248.634 84.5979 247.869 85.4265 247.299C86.2485 246.729 87.2096 246.404 88.31 246.324L88.31 249.765C87.5742 249.904 86.9611 250.235 86.4705 250.759C85.9734 251.276 85.7248 251.969 85.7248 252.837C85.7248 253.573 85.9236 254.219 86.3214 254.776C86.7125 255.333 87.2759 255.767 88.0117 256.078C88.7475 256.383 89.6291 256.536 90.6566 256.536C91.6973 256.536 92.5922 256.383 93.3413 256.078C94.0837 255.774 94.6571 255.346 95.0614 254.796C95.4592 254.239 95.658 253.586 95.658 252.837C95.658 252.307 95.5586 251.833 95.3597 251.415C95.1542 250.991 94.8593 250.636 94.4748 250.351C94.0903 250.066 93.623 249.871 93.0728 249.765L93.0728 246.324C94.1533 246.41 95.1111 246.729 95.9464 247.279C96.775 247.829 97.4246 248.578 97.8952 249.526C98.3593 250.474 98.5913 251.587 98.5913 252.867ZM98.5913 237.239C98.5913 238.73 98.2631 240.023 97.6069 241.116C96.9506 242.21 96.0325 243.059 94.8526 243.662C93.6727 244.259 92.2939 244.557 90.7163 244.557C89.1386 244.557 87.7565 244.259 86.57 243.662C85.3834 243.059 84.462 242.21 83.8057 241.116C83.1495 240.023 82.8214 238.73 82.8214 237.239C82.8214 235.747 83.1495 234.455 83.8057 233.361C84.462 232.267 85.3834 231.422 86.57 230.825C87.7565 230.222 89.1386 229.92 90.7163 229.92C92.2939 229.92 93.6727 230.222 94.8526 230.825C96.0325 231.422 96.9506 232.267 97.6069 233.361C98.2631 234.455 98.5913 235.747 98.5913 237.239ZM95.7077 237.219C95.7077 236.41 95.4857 235.734 95.0415 235.19C94.5908 234.647 93.9876 234.242 93.2319 233.977C92.4762 233.705 91.6343 233.57 90.7063 233.57C89.7717 233.57 88.9265 233.705 88.1708 233.977C87.4085 234.242 86.802 234.647 86.3512 235.19C85.9004 235.734 85.6751 236.41 85.6751 237.219C85.6751 238.047 85.9004 238.737 86.3512 239.287C86.802 239.83 87.4085 240.238 88.1708 240.51C88.9265 240.775 89.7717 240.908 90.7063 240.908C91.6343 240.908 92.4762 240.775 93.2319 240.51C93.9876 240.238 94.5908 239.83 95.0415 239.287C95.4857 238.737 95.7077 238.047 95.7077 237.219ZM83.0202 217.295L85.9734 217.295L85.9734 223.878L98.293 223.878L98.293 227.397L83.0202 227.397L83.0202 217.295ZM98.293 217.253L95.3299 217.273L95.3299 216.746C95.3299 216.348 95.2404 216.013 95.0614 215.742C94.8825 215.47 94.5842 215.244 94.1665 215.065C93.7423 214.886 93.1722 214.747 92.4563 214.648C91.7404 214.548 90.8488 214.479 89.7816 214.439L83.0202 214.171L83.0202 203.034L98.293 203.034L98.293 206.514L85.9734 206.514L85.9734 210.899L90.8952 211.138C92.168 211.198 93.2717 211.34 94.2063 211.565C95.1343 211.784 95.9 212.096 96.5032 212.5C97.1064 212.898 97.5572 213.398 97.8555 214.001C98.1471 214.605 98.293 215.317 98.293 216.139L98.293 217.253ZM98.6012 195.547C98.6012 196.515 98.4289 197.386 98.0842 198.162C97.7328 198.931 97.2158 199.541 96.533 199.992C95.8503 200.436 95.0084 200.658 94.0075 200.658C93.1457 200.658 92.4331 200.499 91.8697 200.18C91.3062 199.862 90.8555 199.428 90.5174 198.878C90.1793 198.328 89.9241 197.708 89.7518 197.019C89.5728 196.323 89.4435 195.603 89.364 194.861C89.2712 193.966 89.1883 193.24 89.1154 192.683C89.0359 192.127 88.9165 191.722 88.7575 191.47C88.5917 191.212 88.3365 191.082 87.9918 191.082L87.9322 191.082C87.1831 191.082 86.6031 191.305 86.1921 191.749C85.7811 192.193 85.5756 192.832 85.5756 193.668C85.5756 194.549 85.7679 195.249 86.1523 195.766C86.5368 196.276 86.9909 196.621 87.5146 196.8L87.0373 200.161C86.1093 199.895 85.3337 199.458 84.7106 198.848C84.0808 198.238 83.6102 197.493 83.2986 196.611C82.9805 195.729 82.8214 194.755 82.8214 193.688C82.8214 192.952 82.9075 192.219 83.0799 191.49C83.2522 190.761 83.5373 190.095 83.935 189.492C84.3261 188.888 84.8597 188.404 85.5359 188.04C86.212 187.669 87.0572 187.483 88.0714 187.483L98.293 187.483L98.293 190.943L96.195 190.943L96.195 191.063C96.6192 191.281 97.0169 191.59 97.3881 191.987C97.7527 192.378 98.0477 192.872 98.2731 193.469C98.4918 194.059 98.6012 194.752 98.6012 195.547ZM95.9563 194.612C95.9563 193.89 95.8138 193.263 95.5288 192.733C95.2371 192.203 94.8526 191.795 94.3753 191.51C93.8981 191.218 93.3777 191.073 92.8143 191.073L91.0146 191.073C91.1074 191.185 91.1935 191.377 91.2731 191.649C91.3526 191.914 91.4222 192.213 91.4819 192.544C91.5415 192.876 91.5946 193.204 91.641 193.529C91.6874 193.853 91.7271 194.135 91.7603 194.374C91.8332 194.911 91.9525 195.391 92.1182 195.815C92.284 196.24 92.516 196.574 92.8143 196.82C93.1059 197.065 93.4838 197.188 93.9478 197.188C94.6107 197.188 95.1111 196.946 95.4492 196.462C95.7873 195.978 95.9563 195.361 95.9563 194.612ZM83.0202 184.396L83.0202 180.926L95.3299 180.926L95.3299 176.123L83.0202 176.123L83.0202 172.653L95.3299 172.653L95.3299 167.85L83.0202 167.85L83.0202 164.38L98.293 164.38L98.293 184.396L83.0202 184.396ZM98.5913 154.514C98.5913 156.045 98.2731 157.368 97.6367 158.481C96.9937 159.588 96.0856 160.44 94.9123 161.037C93.7324 161.633 92.3436 161.932 90.7461 161.932C89.1751 161.932 87.7963 161.633 86.6097 161.037C85.4165 160.434 84.4885 159.592 83.8256 158.511C83.1561 157.431 82.8214 156.161 82.8214 154.703C82.8214 153.762 82.9738 152.873 83.2788 152.038C83.5771 151.196 84.0411 150.454 84.6708 149.811C85.3005 149.161 86.1026 148.651 87.0771 148.28C88.0449 147.908 89.1983 147.723 90.5373 147.723L91.641 147.723L91.641 160.241L89.2148 160.241L89.2148 151.173C88.5254 151.18 87.9123 151.329 87.3753 151.621C86.8318 151.912 86.4042 152.32 86.0927 152.844C85.7811 153.361 85.6253 153.964 85.6253 154.653C85.6253 155.389 85.8043 156.035 86.1623 156.592C86.5136 157.149 86.9776 157.583 87.5543 157.895C88.1244 158.2 88.7508 158.355 89.4336 158.362L91.5515 158.362C92.4397 158.362 93.2021 158.2 93.8384 157.875C94.4682 157.55 94.9521 157.096 95.2901 156.513C95.6216 155.929 95.7873 155.247 95.7873 154.464C95.7873 153.941 95.7144 153.467 95.5685 153.042C95.4161 152.618 95.194 152.25 94.9023 151.939C94.6107 151.627 94.2494 151.392 93.8185 151.233L94.1964 147.872C95.0846 148.084 95.8602 148.488 96.5231 149.085C97.1793 149.675 97.6897 150.431 98.0543 151.352C98.4123 152.274 98.5913 153.327 98.5913 154.514ZM89.1651 134.72L92.1182 134.72L92.1182 142.853L89.1651 142.853L89.1651 134.72ZM83.0202 141.74L98.293 141.74L98.293 145.21L83.0202 145.21L83.0202 141.74ZM83.0202 132.363L98.293 132.363L98.293 135.823L83.0202 135.823L83.0202 132.363ZM93.4208 125.783L83.0202 119.668L83.0202 115.969L98.293 115.969L98.293 119.449L87.8824 119.449L98.293 125.545L98.293 129.253L83.0202 129.253L83.0202 125.783L93.4208 125.783ZM98.5913 106.044C98.5913 107.575 98.2731 108.897 97.6367 110.011C96.9937 111.118 96.0856 111.97 94.9123 112.566C93.7324 113.163 92.3436 113.461 90.7461 113.461C89.1751 113.461 87.7963 113.163 86.6097 112.566C85.4165 111.963 84.4885 111.121 83.8256 110.041C83.1561 108.96 82.8214 107.691 82.8214 106.233C82.8214 105.291 82.9738 104.403 83.2788 103.568C83.577 102.726 84.0411 101.983 84.6708 101.34C85.3005 100.691 86.1026 100.18 87.077 99.8092C88.0449 99.438 89.1983 99.2524 90.5373 99.2524L91.641 99.2524L91.641 111.771L89.2148 111.771L89.2148 102.703C88.5254 102.709 87.9123 102.858 87.3753 103.15C86.8318 103.442 86.4042 103.849 86.0927 104.373C85.7811 104.89 85.6253 105.493 85.6253 106.183C85.6253 106.919 85.8043 107.565 86.1623 108.122C86.5136 108.679 86.9776 109.113 87.5543 109.424C88.1244 109.729 88.7508 109.885 89.4336 109.892L91.5515 109.892C92.4397 109.892 93.2021 109.729 93.8384 109.404C94.4681 109.08 94.9521 108.626 95.2901 108.042C95.6216 107.459 95.7873 106.776 95.7873 105.994C95.7873 105.47 95.7144 104.996 95.5685 104.572C95.4161 104.148 95.194 103.78 94.9023 103.468C94.6107 103.157 94.2494 102.921 93.8185 102.762L94.1964 99.4016C95.0846 99.6137 95.8602 100.018 96.5231 100.615C97.1793 101.205 97.6897 101.96 98.0543 102.882C98.4123 103.803 98.5913 104.857 98.5913 106.044Z" fill="white"/>
</g>
<defs>
<filter id="filter0_d_2688_3575" x="0" y="0" width="156" height="368" filterUnits="userSpaceOnUse" color-interpolation-filters="sRGB">
<feFlood flood-opacity="0" result="BackgroundImageFix"/>
<feColorMatrix in="SourceAlpha" type="matrix" values="0 0 0 0 0 0 0 0 0 0 0 0 0 0 0 0 0 0 127 0" result="hardAlpha"/>
<feOffset dy="4"/>
<feGaussianBlur stdDeviation="2"/>
<feComposite in2="hardAlpha" operator="out"/>
<feColorMatrix type="matrix" values="0 0 0 0 0 0 0 0 0 0 0 0 0 0 0 0 0 0 0.25 0"/>
<feBlend mode="normal" in2="BackgroundImageFix" result="effect1_dropShadow_2688_3575"/>
<feBlend mode="normal" in="SourceGraphic" in2="effect1_dropShadow_2688_3575" result="shape"/>
</filter>
</defs>
</svg>
