<svg width="132" height="30" viewBox="0 0 132 30" fill="none" xmlns="http://www.w3.org/2000/svg">
<path d="M0 22.5972L5.62174 19.3454C6.76538 21.9909 8.7633 23.2999 11.6017 23.2999C14.1646 23.2999 15.4736 22.5283 15.4736 20.9851C15.4736 20.1308 15.0602 19.4832 14.2059 19.0285C13.393 18.5462 11.8497 17.9675 9.56247 17.3613C7.16496 16.7136 5.52529 15.9834 3.77538 14.6744C2.12193 13.3103 1.18497 11.2848 1.18497 8.66685C1.18497 6.02132 2.12193 3.94073 3.99584 2.35617C5.89731 0.771611 8.14325 0 10.7474 0C15.4322 0 19.0974 2.24594 21.178 6.43469L15.6802 9.64514C14.6606 7.49565 13.2276 6.35201 10.7474 6.35201C8.79086 6.35201 7.68855 7.33031 7.68855 8.51528C7.68855 9.20422 8.01925 9.82426 8.66685 10.3479C9.35579 10.8715 10.7474 11.4502 12.8143 12.0564L15.4598 12.9107C16.066 13.1174 16.879 13.4756 17.816 14.013C18.7942 14.4953 19.5245 15.0326 20.0206 15.5976C21.0402 16.6999 21.9771 18.5738 21.9771 20.8886C21.9771 23.6168 20.9988 25.7387 19.0423 27.3233C17.0857 28.8665 14.5228 29.6381 11.3813 29.6381C5.5804 29.6381 1.6259 26.9513 0 22.5972Z" fill="black"/>
<path d="M43.9397 0.564453V6.83379H36.6094V29.0727H30.092V6.83379H22.7617V0.564453H43.9397Z" fill="black"/>
<path d="M52.4002 22.8034H63.7952V29.0727H45.8828V0.564453H63.5885V6.83379H52.3864V11.5599H62.5689V17.7466H52.3864V22.8034H52.4002Z" fill="black"/>
<path d="M78.5232 0.564453C81.334 0.564453 83.6902 1.50141 85.6054 3.41666C87.5207 5.33191 88.499 7.60541 88.499 10.3336C88.499 13.0618 87.5207 15.3353 85.6054 17.2505C83.6902 19.1658 81.334 20.1027 78.5232 20.1027H74.2517V29.059H67.7344V0.564453H78.5232ZM78.5232 14.0125C80.5211 14.0125 81.9816 12.428 81.9816 10.3474C81.9816 8.26679 80.5211 6.68223 78.5232 6.68223H74.2517V14.0125H78.5232Z" fill="black"/>
<path d="M101.703 0.564453C104.514 0.564453 106.87 1.50141 108.785 3.41666C110.7 5.33191 111.679 7.60541 111.679 10.3336C111.679 13.0618 110.7 15.3353 108.785 17.2505C106.87 19.1658 104.514 20.1027 101.703 20.1027H97.4314V29.059H90.9141V0.564453H101.703ZM101.703 14.0125C103.701 14.0125 105.161 12.428 105.161 10.3474C105.161 8.26679 103.701 6.68223 101.703 6.68223H97.4314V14.0125H101.703Z" fill="black"/>
<path d="M120.603 22.8034H131.998V29.0727H114.086V0.564453H131.792V6.83379H120.59V11.5599H130.772V17.7466H120.59V22.8034H120.603Z" fill="black"/>
</svg>
