<svg width="736" height="166" viewBox="0 0 736 166" fill="none" xmlns="http://www.w3.org/2000/svg">
<path d="M0 126.564L31.3453 108.351C37.722 123.169 48.8619 130.5 64.6882 130.5C78.978 130.5 86.2765 126.179 86.2765 117.535C86.2765 112.75 83.9717 109.123 79.2085 106.576C74.6757 103.875 66.0711 100.634 53.3178 97.2385C39.95 93.6113 30.8076 89.5211 21.0506 82.1897C11.8313 74.5495 6.60711 63.205 6.60711 48.5421C6.60711 33.7248 11.8313 22.0716 22.2798 13.1967C32.8819 4.32171 45.4047 0 59.9249 0C86.0461 0 106.482 12.5793 118.083 36.04L87.4289 54.0214C81.7438 41.9823 73.7538 35.5769 59.9249 35.5769C49.0155 35.5769 42.8694 41.0563 42.8694 47.6932C42.8694 51.5518 44.7132 55.0246 48.3241 57.9572C52.1654 60.8898 59.9249 64.1311 71.449 67.5267L86.1997 72.3115C89.5801 73.4691 94.1129 75.4756 99.3371 78.4854C104.792 81.1864 108.864 84.1962 111.629 87.3603C117.315 93.5342 122.539 104.03 122.539 116.995C122.539 132.275 117.084 144.16 106.175 153.035C95.2653 161.678 80.9755 166 63.459 166C31.1149 166 9.06557 150.951 0 126.564Z" fill="black"/>
<path d="M244.999 3.16211V38.276H204.127V162.834H167.788V38.276H126.916V3.16211H244.999Z" fill="black"/>
<path d="M292.183 127.72H355.719V162.834H255.844V3.16211H354.566V38.276H292.106V64.7465H348.881V99.3974H292.106V127.72H292.183Z" fill="black"/>
<path d="M437.837 3.16211C453.51 3.16211 466.647 8.4099 477.326 19.137C488.005 29.8641 493.46 42.5977 493.46 57.878C493.46 73.1584 488.005 85.892 477.326 96.6191C466.647 107.346 453.51 112.594 437.837 112.594H414.021V162.757H377.682V3.16211H437.837ZM437.837 78.4833C448.977 78.4833 457.121 69.6084 457.121 57.9552C457.121 46.302 448.977 37.4271 437.837 37.4271H414.021V78.4833H437.837Z" fill="black"/>
<path d="M567.068 3.16211C582.74 3.16211 595.878 8.4099 606.557 19.137C617.235 29.8641 622.69 42.5977 622.69 57.878C622.69 73.1584 617.235 85.892 606.557 96.6191C595.878 107.346 582.74 112.594 567.068 112.594H543.251V162.757H506.912V3.16211H567.068ZM567.068 78.4833C578.207 78.4833 586.351 69.6084 586.351 57.9552C586.351 46.302 578.207 37.4271 567.068 37.4271H543.251V78.4833H567.068Z" fill="black"/>
<path d="M672.46 127.72H735.996V162.834H636.121V3.16211H734.844V38.276H672.383V64.7465H729.158V99.3974H672.383V127.72H672.46Z" fill="black"/>
</svg>
