<svg width="1408" height="246" viewBox="0 0 1408 246" fill="none" xmlns="http://www.w3.org/2000/svg">
<path d="M0 243.98L59.965 208.87C72.1638 237.434 93.4749 251.567 123.751 251.567C151.088 251.567 165.051 243.236 165.051 226.574C165.051 217.35 160.642 210.358 151.529 205.449C142.858 200.242 126.397 193.993 101.999 187.448C76.426 180.456 58.9362 172.571 40.2706 158.438C22.6339 143.71 12.6397 121.841 12.6397 93.5751C12.6397 65.0116 22.6339 42.5476 42.6222 25.4393C62.9045 8.33101 86.8611 0 114.639 0C164.61 0 203.705 24.2492 225.898 69.4747L167.255 104.138C156.379 80.9298 141.094 68.582 114.639 68.582C93.7688 68.582 82.011 79.1446 82.011 91.9386C82.011 99.377 85.5383 106.072 92.4461 111.725C99.7947 117.378 114.639 123.626 136.685 130.172L164.904 139.396C171.371 141.627 180.042 145.495 190.036 151.297C200.471 156.504 208.261 162.306 213.552 168.405C224.428 180.307 234.422 200.539 234.422 225.532C234.422 254.988 223.987 277.899 203.117 295.007C182.247 311.669 154.91 320 121.4 320C59.5241 320 17.3428 290.99 0 243.98Z" fill="black"/>
<path d="M468.691 6.09644V73.7859H390.501V313.897H320.983V73.7859H242.793V6.09644H468.691Z" fill="black"/>
<path d="M558.954 246.208H680.501V313.897H489.436V6.09644H678.296V73.7859H558.807V124.813H667.42V191.61H558.807V246.208H558.954Z" fill="black"/>
<path d="M837.6 6.09644C867.582 6.09644 892.714 16.2127 913.144 36.8914C933.573 57.5702 944.008 82.1169 944.008 111.573C944.008 141.029 933.573 165.576 913.144 186.254C892.714 206.933 867.582 217.049 837.6 217.049H792.038V313.749H722.52V6.09644H837.6ZM837.6 151.294C858.911 151.294 874.49 134.186 874.49 111.722C874.49 89.2578 858.911 72.1494 837.6 72.1494H792.038V151.294H837.6Z" fill="black"/>
<path d="M1084.83 6.09644C1114.81 6.09644 1139.94 16.2127 1160.37 36.8914C1180.8 57.5702 1191.23 82.1169 1191.23 111.573C1191.23 141.029 1180.8 165.576 1160.37 186.254C1139.94 206.933 1114.81 217.049 1084.83 217.049H1039.26V313.749H969.746V6.09644H1084.83ZM1084.83 151.294C1106.14 151.294 1121.72 134.186 1121.72 111.722C1121.72 89.2578 1106.14 72.1494 1084.83 72.1494H1039.26V151.294H1084.83Z" fill="black"/>
<path d="M1286.45 246.208H1408V313.897H1216.93V6.09644H1405.79V73.7859H1286.31V124.813H1394.92V191.61H1286.31V246.208H1286.45Z" fill="black"/>
</svg>
