<svg width="247" height="56" viewBox="0 0 247 56" fill="none" xmlns="http://www.w3.org/2000/svg">
<path d="M0 42.6964L10.5194 36.5523C12.6594 41.5509 16.3979 44.0242 21.7092 44.0242C26.5048 44.0242 28.9542 42.5662 28.9542 39.6504C28.9542 38.0363 28.1807 36.8126 26.5822 35.9535C25.061 35.0423 22.1733 33.9489 17.8933 32.8033C13.4071 31.5797 10.339 30.1999 7.06452 27.7266C3.97057 25.1492 2.21733 21.3222 2.21733 16.3756C2.21733 11.377 3.97057 7.44584 7.47705 4.45188C11.0351 1.45793 15.2377 0 20.1107 0C28.8769 0 35.7351 4.24361 39.6283 12.1581L29.341 18.2241C27.433 14.1627 24.7516 12.0019 20.1107 12.0019C16.4495 12.0019 14.3869 13.8503 14.3869 16.0893C14.3869 17.391 15.0057 18.5625 16.2175 19.5518C17.5066 20.5411 20.1107 21.6346 23.9781 22.7801L28.9284 24.3942C30.0629 24.7847 31.5841 25.4616 33.3373 26.477C35.1679 27.3882 36.5344 28.4035 37.4626 29.4709C39.3705 31.5537 41.1238 35.0944 41.1238 39.4682C41.1238 44.623 39.2932 48.6323 35.632 51.6262C31.9708 54.5421 27.1752 56 21.2967 56C10.4421 56 3.04238 50.9233 0 42.6964Z" fill="white"/>
<path d="M82.2201 1.06689V12.9125H68.5036V54.9321H56.3083V12.9125H42.5918V1.06689H82.2201Z" fill="white"/>
<path d="M98.0547 43.0864H119.377V54.9321H85.8594V1.06689H118.99V12.9125H98.0289V21.8423H117.082V33.5318H98.0289V43.0864H98.0547Z" fill="white"/>
<path d="M146.936 1.06689C152.196 1.06689 156.605 2.83723 160.188 6.45602C163.772 10.0748 165.603 14.3705 165.603 19.5253C165.603 24.6801 163.772 28.9758 160.188 32.5946C156.605 36.2133 152.196 37.9837 146.936 37.9837H138.943V54.906H126.748V1.06689H146.936ZM146.936 26.4765C150.675 26.4765 153.408 23.4825 153.408 19.5513C153.408 15.6201 150.675 12.6262 146.936 12.6262H138.943V26.4765H146.936Z" fill="white"/>
<path d="M190.307 1.06689C195.567 1.06689 199.976 2.83723 203.56 6.45602C207.143 10.0748 208.974 14.3705 208.974 19.5253C208.974 24.6801 207.143 28.9758 203.56 32.5946C199.976 36.2133 195.567 37.9837 190.307 37.9837H182.314V54.906H170.119V1.06689H190.307ZM190.307 26.4765C194.046 26.4765 196.779 23.4825 196.779 19.5513C196.779 15.6201 194.046 12.6262 190.307 12.6262H182.314V26.4765H190.307Z" fill="white"/>
<path d="M225.678 43.0864H247V54.9321H213.482V1.06689H246.613V12.9125H225.652V21.8423H244.706V33.5318H225.652V43.0864H225.678Z" fill="white"/>
</svg>
