<svg width="506" height="112" viewBox="0 0 506 112" fill="none" xmlns="http://www.w3.org/2000/svg">
<path d="M0 85.3928L21.5499 73.1046C25.9339 83.1018 33.5925 88.0484 44.4731 88.0484C54.2974 88.0484 59.3151 85.1325 59.3151 79.3008C59.3151 76.0725 57.7306 73.6253 54.4558 71.907C51.3395 70.0846 45.4239 67.8977 36.656 65.6067C27.4656 63.1595 21.1802 60.3998 14.4723 55.4533C8.13404 50.2985 4.54239 42.6444 4.54239 32.7513C4.54239 22.7541 8.13404 14.8917 15.3174 8.90377C22.6063 2.91585 31.2157 0 41.1984 0C59.1567 0 73.2064 8.48722 81.182 24.3161L60.1074 36.4482C56.1988 28.3254 50.7057 24.0037 41.1984 24.0037C33.6982 24.0037 29.4727 27.7006 29.4727 32.1785C29.4727 34.782 30.7403 37.1251 33.2228 39.1037C35.8637 41.0823 41.1984 43.2692 49.1212 45.5602L59.2623 48.7885C61.5863 49.5695 64.7026 50.9233 68.2943 52.954C72.0444 54.7764 74.8438 56.8071 76.7452 58.9419C80.6538 63.1074 84.2454 70.1888 84.2454 78.9363C84.2454 89.2459 80.4953 97.2645 72.9951 103.252C65.4949 109.084 55.6707 112 43.628 112C21.3915 112 6.23258 101.847 0 85.3928Z" fill="black"/>
<path d="M168.44 2.13184V25.8231H140.34V109.862H115.357V25.8231H87.2578V2.13184H168.44Z" fill="black"/>
<path d="M200.874 86.1709H244.555V109.862H175.891V2.13184H243.762V25.8231H200.821V43.6828H239.854V67.0616H200.821V86.1709H200.874Z" fill="black"/>
<path d="M301.013 2.13184C311.788 2.13184 320.82 5.67251 328.162 12.9101C335.504 20.1476 339.254 28.739 339.254 39.0486C339.254 49.3582 335.504 57.9496 328.162 65.1872C320.82 72.4247 311.788 75.9654 301.013 75.9654H284.639V109.81H259.656V2.13184H301.013ZM301.013 52.951C308.672 52.951 314.271 46.9631 314.271 39.1007C314.271 31.2383 308.672 25.2504 301.013 25.2504H284.639V52.951H301.013Z" fill="black"/>
<path d="M389.857 2.13184C400.632 2.13184 409.664 5.67251 417.006 12.9101C424.347 20.1476 428.097 28.739 428.097 39.0486C428.097 49.3582 424.347 57.9496 417.006 65.1872C409.664 72.4247 400.632 75.9654 389.857 75.9654H373.483V109.81H348.5V2.13184H389.857ZM389.857 52.951C397.516 52.951 403.114 46.9631 403.114 39.1007C403.114 31.2383 397.516 25.2504 389.857 25.2504H373.483V52.951H389.857Z" fill="black"/>
<path d="M462.315 86.1709H505.996V109.862H437.332V2.13184H505.204V25.8231H462.262V43.6828H501.295V67.0616H462.262V86.1709H462.315Z" fill="black"/>
</svg>
