<svg width="84" height="48" viewBox="0 0 84 48" fill="none" xmlns="http://www.w3.org/2000/svg">
<rect width="84" height="48" rx="24" fill="black"/>
<path d="M69.2321 24.5C69.2321 27.151 67.0831 29.3 64.4321 29.3C61.7812 29.3 59.6321 27.151 59.6321 24.5C59.6321 21.849 61.7812 19.7 64.4321 19.7C67.0831 19.7 69.2321 21.849 69.2321 24.5Z" fill="#9C9CFF"/>
<path d="M64.4321 16.5V17.3M64.4321 31.7V32.5M71.3603 20.5L70.6675 20.9M58.1967 28.1L57.5039 28.5M57.5039 20.5L58.1967 20.9M70.6675 28.1L71.3603 28.5M69.2321 24.5C69.2321 27.151 67.0831 29.3 64.4321 29.3C61.7812 29.3 59.6321 27.151 59.6321 24.5C59.6321 21.849 61.7812 19.7 64.4321 19.7C67.0831 19.7 69.2321 21.849 69.2321 24.5Z" stroke="#9C9CFF" stroke-width="1.125" stroke-linecap="round"/>
<circle cx="24" cy="24" r="20" fill="white"/>
</svg>
