<svg width="21" height="20" viewBox="0 0 21 20" fill="none" xmlns="http://www.w3.org/2000/svg">
<path fill-rule="evenodd" clip-rule="evenodd" d="M19.2357 16.0108C19.2357 18.214 17.3641 20 15.0554 20H6.69465C4.3859 20 2.5143 18.214 2.5143 16.0108V11.133C2.5143 10.4248 2.21947 9.74559 1.69469 9.2448C0.478805 8.0845 0.63687 6.16205 2.02751 5.19692L8.41624 0.762995C9.88208 -0.254332 11.8679 -0.254332 13.3338 0.762995L19.7225 5.19691C21.1131 6.16205 21.2712 8.0845 20.0553 9.2448C19.5305 9.74559 19.2357 10.4248 19.2357 11.133V16.0108ZM10.875 16C11.9796 16 12.875 15.1046 12.875 14C12.875 12.8954 11.9796 12 10.875 12C9.77043 12 8.875 12.8954 8.875 14C8.875 15.1046 9.77043 16 10.875 16Z" fill="white"/>
</svg>
