<svg width="20" height="20" viewBox="0 0 20 20" fill="none" xmlns="http://www.w3.org/2000/svg">
<path d="M18.8689 13.7206L18.2293 13.3289V13.3289L18.8689 13.7206ZM17.9144 15.2794L18.554 15.6711V15.6711L17.9144 15.2794ZM1.38109 6.27942L0.74148 5.88775H0.74148L1.38109 6.27942ZM2.33564 4.72057L2.97525 5.11223L2.33564 4.72057ZM4.94352 4.06172L5.3021 3.403L5.3021 3.403L4.94352 4.06172ZM2.07987 8.73826L1.72129 9.39699H1.72129L2.07987 8.73826ZM15.3065 15.9383L14.9479 16.597L14.9479 16.597L15.3065 15.9383ZM18.1701 11.2617L17.8116 11.9204V11.9205L18.1701 11.2617ZM2.33564 15.2794L1.69603 15.6711L1.69603 15.6711L2.33564 15.2794ZM1.38109 13.7206L2.0207 13.3289L2.0207 13.3289L1.38109 13.7206ZM17.9144 4.72058L18.554 4.32892V4.32892L17.9144 4.72058ZM18.8689 6.27943L18.2293 6.67109V6.67109L18.8689 6.27943ZM18.1701 8.73828L18.5287 9.397L18.1701 8.73828ZM15.3065 4.06174L15.6651 4.72046V4.72046L15.3065 4.06174ZM2.07987 11.2617L2.43845 11.9205H2.43845L2.07987 11.2617ZM4.94351 15.9383L4.58494 15.2795L4.58493 15.2795L4.94351 15.9383ZM15.205 4.11698L14.8464 3.45825L15.205 4.11698ZM5.045 4.11697L4.68642 4.77569L4.68642 4.77569L5.045 4.11697ZM15.205 15.883L15.5636 15.2243L15.5636 15.2243L15.205 15.883ZM5.045 15.883L5.40358 16.5418L5.40358 16.5418L5.045 15.883ZM9.17045 1.75H11.0795V0.25H9.17045V1.75ZM11.0795 18.25H9.17045V19.75H11.0795V18.25ZM9.17045 18.25C8.48811 18.25 8.01135 17.7389 8.01135 17.2H6.51135C6.51135 18.6493 7.74406 19.75 9.17045 19.75V18.25ZM12.2386 17.2C12.2386 17.7389 11.7619 18.25 11.0795 18.25V19.75C12.5059 19.75 13.7386 18.6493 13.7386 17.2H12.2386ZM11.0795 1.75C11.7619 1.75 12.2386 2.26107 12.2386 2.8H13.7386C13.7386 1.35071 12.5059 0.25 11.0795 0.25V1.75ZM9.17045 0.25C7.74406 0.25 6.51135 1.35071 6.51135 2.8H8.01135C8.01135 2.26107 8.48811 1.75 9.17045 1.75V0.25ZM18.2293 13.3289L17.2748 14.8878L18.554 15.6711L19.5085 14.1122L18.2293 13.3289ZM2.0207 6.67108L2.97525 5.11223L1.69603 4.32891L0.74148 5.88775L2.0207 6.67108ZM2.97525 5.11223C3.28389 4.6082 4.00555 4.40506 4.58493 4.72045L5.3021 3.403C4.05527 2.72428 2.44176 3.11109 1.69603 4.32891L2.97525 5.11223ZM2.43845 8.07954C1.88246 7.77688 1.7293 7.14696 2.0207 6.67108L0.74148 5.88775C-0.0214821 7.13373 0.451062 8.70553 1.72129 9.39699L2.43845 8.07954ZM17.2748 14.8878C16.9661 15.3918 16.2445 15.5949 15.6651 15.2795L14.9479 16.597C16.1947 17.2757 17.8082 16.8889 18.554 15.6711L17.2748 14.8878ZM19.5085 14.1122C20.2715 12.8663 19.7989 11.2945 18.5287 10.603L17.8116 11.9205C18.3675 12.2231 18.5207 12.853 18.2293 13.3289L19.5085 14.1122ZM2.97525 14.8878L2.0207 13.3289L0.741479 14.1122L1.69603 15.6711L2.97525 14.8878ZM17.2748 5.11225L18.2293 6.67109L19.5085 5.88777L18.554 4.32892L17.2748 5.11225ZM18.2293 6.67109C18.5207 7.14697 18.3675 7.77689 17.8116 8.07955L18.5287 9.397C19.7989 8.70554 20.2715 7.13374 19.5085 5.88777L18.2293 6.67109ZM15.6651 4.72046C16.2445 4.40507 16.9661 4.60822 17.2748 5.11225L18.554 4.32892C17.8082 3.1111 16.1947 2.72429 14.9479 3.40301L15.6651 4.72046ZM2.0207 13.3289C1.7293 12.853 1.88246 12.2231 2.43845 11.9205L1.72129 10.603C0.45106 11.2945 -0.0214832 12.8663 0.741479 14.1122L2.0207 13.3289ZM1.69603 15.6711C2.44175 16.8889 4.05527 17.2757 5.3021 16.597L4.58493 15.2795C4.00555 15.5949 3.28389 15.3918 2.97525 14.8878L1.69603 15.6711ZM15.5636 4.7757L15.6651 4.72046L14.9479 3.40301L14.8464 3.45825L15.5636 4.7757ZM4.58493 4.72045L4.68642 4.77569L5.40358 3.45824L5.3021 3.403L4.58493 4.72045ZM15.6651 15.2795L15.5636 15.2243L14.8464 16.5417L14.9479 16.597L15.6651 15.2795ZM4.68642 15.2243L4.58494 15.2795L5.30209 16.597L5.40358 16.5418L4.68642 15.2243ZM1.72129 9.39699C2.19904 9.65705 2.19904 10.3429 1.72129 10.603L2.43845 11.9205C3.95998 11.0922 3.95998 8.90779 2.43845 8.07954L1.72129 9.39699ZM5.40358 16.5418C5.90298 16.2699 6.51135 16.6314 6.51135 17.2H8.01135C8.01135 15.4934 6.18535 14.4084 4.68642 15.2243L5.40358 16.5418ZM13.7386 17.2C13.7386 16.6314 14.347 16.2699 14.8464 16.5417L15.5636 15.2243C14.0647 14.4083 12.2386 15.4934 12.2386 17.2H13.7386ZM18.5287 10.603C18.051 10.3429 18.051 9.65706 18.5287 9.397L17.8116 8.07955C16.29 8.9078 16.29 11.0922 17.8116 11.9204L18.5287 10.603ZM4.68642 4.77569C6.18535 5.59165 8.01135 4.50663 8.01135 2.8H6.51135C6.51135 3.3686 5.90298 3.7301 5.40358 3.45824L4.68642 4.77569ZM14.8464 3.45825C14.347 3.73011 13.7386 3.36861 13.7386 2.8H12.2386C12.2386 4.50663 14.0647 5.59166 15.5636 4.7757L14.8464 3.45825ZM12.375 10C12.375 11.2426 11.3676 12.25 10.125 12.25V13.75C12.1961 13.75 13.875 12.0711 13.875 10H12.375ZM10.125 12.25C8.88237 12.25 7.87501 11.2426 7.87501 10H6.37501C6.37501 12.0711 8.05394 13.75 10.125 13.75V12.25ZM7.87501 10C7.87501 8.75736 8.88237 7.75 10.125 7.75V6.25C8.05394 6.25 6.37501 7.92893 6.37501 10H7.87501ZM10.125 7.75C11.3676 7.75 12.375 8.75736 12.375 10H13.875C13.875 7.92893 12.1961 6.25 10.125 6.25V7.75Z" fill="#777777"/>
</svg>
