<svg width="29" height="29" viewBox="0 0 29 29" fill="none" xmlns="http://www.w3.org/2000/svg">
<path d="M14.5456 3.97559C8.57628 3.97559 3.71831 8.65464 3.71621 14.4051C3.71481 16.244 4.21435 18.0387 5.16153 19.6194L3.625 25.024L9.3663 23.5737C10.9633 24.4091 12.7391 24.8449 14.5414 24.8437H14.5456C20.5149 24.8437 25.3729 20.1639 25.375 14.4135C25.3764 11.6281 24.251 9.00615 22.2058 7.03532C20.1613 5.06379 17.4426 3.97629 14.5456 3.97559ZM14.5456 23.0819H14.5421C12.927 23.0819 11.3427 22.6637 9.96056 21.8737L9.63081 21.6857L6.22518 22.5459L7.13447 19.3465L6.92048 19.0189C6.02164 17.648 5.54316 16.0443 5.54391 14.4051C5.54602 9.62497 9.5845 5.73734 14.5491 5.73734C16.9528 5.73804 19.2127 6.64101 20.9127 8.27928C22.6127 9.91755 23.548 12.0961 23.5466 14.4128C23.5445 19.1929 19.5067 23.0819 14.5449 23.0819H14.5456ZM19.4829 16.5885C19.212 16.4587 17.8818 15.8279 17.6334 15.7402C17.3857 15.6539 17.2054 15.609 17.0251 15.87C16.8455 16.131 16.3263 16.7183 16.1691 16.8916C16.0106 17.0656 15.8527 17.0866 15.5819 16.9568C15.3111 16.8263 14.439 16.5513 13.4062 15.6631C12.6014 14.9727 12.0584 14.1195 11.9005 13.8578C11.7427 13.5975 11.8837 13.4565 12.0191 13.3267C12.1405 13.2109 12.2899 13.0229 12.4246 12.8706C12.5593 12.7184 12.6042 12.6096 12.6955 12.4356C12.7853 12.2623 12.7404 12.1094 12.6723 11.9796C12.6042 11.8484 12.064 10.5658 11.8374 10.0445C11.6185 9.53657 11.3954 9.60463 11.2291 9.59621C11.0712 9.58919 10.8916 9.58709 10.7099 9.58709C10.531 9.58709 10.237 9.65234 9.98863 9.91334C9.74096 10.1743 9.04145 10.8044 9.04145 12.0869C9.04145 13.3702 10.0111 14.6092 10.1465 14.7832C10.2819 14.9565 12.0549 17.5897 14.7694 18.7193C15.4149 18.9866 15.9187 19.1473 16.3123 19.2679C16.9606 19.4665 17.5506 19.4377 18.0165 19.3711C18.5357 19.296 19.6176 18.741 19.8421 18.1327C20.068 17.5244 20.068 17.0024 20.0006 16.8937C19.9347 16.7849 19.7537 16.7197 19.4829 16.5885V16.5885Z" fill="black"/>
</svg>
