<svg width="12" height="68" viewBox="0 0 12 68" fill="none" xmlns="http://www.w3.org/2000/svg">
<path d="M0.272727 60.5593L9 60.5593L9 61.6161L1.21023 61.6161L1.21023 66.0138L9 66.0138L9 67.0707L0.272727 67.0707L0.272727 60.5593ZM4.63636 51.0639C5.55682 51.0639 6.35227 51.2301 7.02273 51.5625C7.69318 51.8949 8.21023 52.3509 8.57386 52.9304C8.9375 53.5099 9.11932 54.1719 9.11932 54.9162C9.11932 55.6605 8.9375 56.3224 8.57386 56.902C8.21023 57.4815 7.69318 57.9375 7.02273 58.2699C6.35227 58.6023 5.55682 58.7685 4.63636 58.7685C3.71591 58.7685 2.92045 58.6023 2.25 58.2699C1.57955 57.9375 1.0625 57.4815 0.698863 56.902C0.335226 56.3224 0.153408 55.6605 0.153408 54.9162C0.153408 54.1719 0.335226 53.5099 0.698863 52.9304C1.0625 52.3509 1.57954 51.8949 2.25 51.5625C2.92045 51.2301 3.71591 51.0639 4.63636 51.0639ZM4.63636 52.0866C3.88068 52.0866 3.2429 52.2131 2.72301 52.4659C2.20312 52.7159 1.80966 53.0554 1.54261 53.4844C1.27557 53.9105 1.14204 54.3878 1.14204 54.9162C1.14204 55.4446 1.27557 55.9233 1.54261 56.3523C1.80966 56.7784 2.20312 57.1179 2.72301 57.3707C3.2429 57.6207 3.88068 57.7457 4.63636 57.7457C5.39204 57.7457 6.02983 57.6207 6.54972 57.3707C7.0696 57.1179 7.46307 56.7784 7.73011 56.3523C7.99716 55.9233 8.13068 55.4446 8.13068 54.9162C8.13068 54.3878 7.99716 53.9105 7.73011 53.4844C7.46307 53.0554 7.0696 52.7159 6.54972 52.4659C6.02983 52.2131 5.39204 52.0866 4.63636 52.0866ZM11.1136 50.0369L8.0625 50.0369L8.0625 49.4744C7.88636 49.2812 7.63778 49.0994 7.31676 48.929C6.9929 48.7557 6.56108 48.6094 6.02131 48.4901C5.47869 48.3679 4.78977 48.2869 3.95454 48.2472L0.272726 48.0597L0.272726 42.8778L8.0625 42.8778L8.0625 41.8722L11.0966 41.8722L11.0966 42.8778L9 42.8778L9 49.0312L11.1136 49.0312L11.1136 50.0369ZM8.0625 48.2131L8.0625 43.8835L1.21023 43.8835L1.21023 47.1051L3.95454 47.2415C4.59091 47.2756 5.16761 47.3352 5.68466 47.4205C6.19886 47.5057 6.65483 47.6151 7.05256 47.7486C7.44744 47.8821 7.78409 48.0369 8.0625 48.2131ZM9 40.2752L0.272726 40.2752L0.272726 35.0082L1.21023 35.0082L1.21023 39.2184L4.15909 39.2184L4.15909 35.2809L5.09659 35.2809L5.09659 39.2184L8.0625 39.2184L8.0625 34.94L9 34.94L9 40.2752ZM9 33.8533L8.02841 33.8533L8.02841 33.5977C8.02841 33.234 7.91193 32.9513 7.67898 32.7496C7.44602 32.5479 7.0696 32.4031 6.54971 32.315C6.02983 32.2241 5.34091 32.163 4.48295 32.1317L0.272725 31.9783L0.272725 26.6602L9 26.6602L9 27.717L1.21023 27.717L1.21023 30.9727L4.6875 31.109C5.60227 31.1431 6.38068 31.2269 7.02273 31.3604C7.66477 31.494 8.15483 31.7283 8.4929 32.0636C8.83096 32.3988 9 32.8874 9 33.5295L9 33.8533ZM0.272725 24.5487L0.272725 23.5089L7.14204 23.5089L7.14204 23.4237L0.272725 18.6509L0.272725 17.6282L9 17.6282L9 18.685L2.14772 18.685L2.14772 18.7702L9 23.5259L9 24.5486L0.272725 24.5487ZM3 8.49077L3 9.54758C2.69602 9.61008 2.42897 9.71946 2.19886 9.87571C1.96875 10.0291 1.77557 10.2166 1.61932 10.4382C1.46022 10.657 1.34091 10.8999 1.26136 11.1669C1.18182 11.4339 1.14204 11.7124 1.14204 12.0021C1.14204 12.5305 1.27557 13.0092 1.54261 13.4382C1.80966 13.8643 2.20312 14.2038 2.72301 14.4567C3.2429 14.7067 3.88068 14.8317 4.63636 14.8317C5.39204 14.8317 6.02983 14.7067 6.54971 14.4567C7.0696 14.2038 7.46307 13.8643 7.73011 13.4382C7.99716 13.0092 8.13068 12.5305 8.13068 12.0021C8.13068 11.7124 8.09091 11.4339 8.01136 11.1669C7.93182 10.8999 7.81392 10.657 7.65767 10.4382C7.49858 10.2166 7.30397 10.0291 7.07386 9.87571C6.84091 9.71946 6.57386 9.61008 6.27272 9.54758L6.27272 8.49077C6.71875 8.57031 7.1179 8.7152 7.47017 8.92543C7.82244 9.13565 8.12216 9.39702 8.36932 9.70952C8.61363 10.022 8.79971 10.3729 8.92755 10.7621C9.0554 11.1484 9.11932 11.5618 9.11932 12.0021C9.11932 12.7464 8.9375 13.4084 8.57386 13.9879C8.21022 14.5675 7.69318 15.0234 7.02272 15.3558C6.35227 15.6882 5.55682 15.8544 4.63636 15.8544C3.71591 15.8544 2.92045 15.6882 2.25 15.3558C1.57954 15.0234 1.0625 14.5675 0.698861 13.9879C0.335225 13.4084 0.153406 12.7464 0.153406 12.0021C0.153406 11.5618 0.217327 11.1484 0.345168 10.7621C0.473009 10.3729 0.660509 10.022 0.907668 9.70952C1.15199 9.39702 1.45028 9.13565 1.80255 8.92543C2.15199 8.7152 2.55113 8.57031 3 8.49077ZM3.9375 5.99893L3.9375 3.5103C3.9375 2.8853 4.03977 2.35831 4.24431 1.92933C4.44886 1.49751 4.73721 1.17081 5.10937 0.949218C5.48153 0.724786 5.92045 0.61257 6.42613 0.61257C6.93182 0.61257 7.37784 0.724786 7.7642 0.949218C8.15057 1.17081 8.45312 1.49751 8.67187 1.92933C8.89062 2.35831 9 2.8853 9 3.5103L9 6.78302L0.272724 6.78303L0.272724 5.72621L8.07954 5.72621L8.07954 3.5103C8.07954 3.11257 8 2.77592 7.84091 2.50035C7.67897 2.22195 7.47159 2.01172 7.21875 1.86967C6.96307 1.72479 6.69318 1.65234 6.40909 1.65234C5.99147 1.65234 5.6321 1.81285 5.33096 2.13388C5.02699 2.4549 4.875 2.91371 4.875 3.5103L4.875 5.99893L3.9375 5.99893Z" fill="black"/>
</svg>
